<?xml version="1.0" encoding="UTF-8"?>
<!DOCTYPE svg PUBLIC "-//W3C//DTD SVG 1.1//EN" "http://www.w3.org/Graphics/SVG/1.1/DTD/svg11.dtd">
<svg xmlns="http://www.w3.org/2000/svg" version="1.1" width="630px" height="694px" style="shape-rendering:geometricPrecision; text-rendering:geometricPrecision; image-rendering:optimizeQuality; fill-rule:evenodd; clip-rule:evenodd" xmlns:xlink="http://www.w3.org/1999/xlink">
<g><path style="opacity:0.999" fill="#101828" d="M 11.5,-0.5 C 217.5,-0.5 423.5,-0.5 629.5,-0.5C 629.5,1.5 629.5,3.5 629.5,5.5C 482.167,5.5 334.833,5.5 187.5,5.5C 128.832,5.33334 70.1657,5.50001 11.5,6C 9.71398,6.78451 8.21398,7.95118 7,9.5C 5.83522,121.42 5.33522,233.42 5.5,345.5C 5.33727,458.209 5.83727,570.876 7,683.5C 8.21398,685.049 9.71398,686.215 11.5,687C 70.1657,687.5 128.832,687.667 187.5,687.5C 334.833,687.5 482.167,687.5 629.5,687.5C 629.5,689.5 629.5,691.5 629.5,693.5C 423.5,693.5 217.5,693.5 11.5,693.5C 5.83333,691.167 1.83333,687.167 -0.5,681.5C -0.5,458.167 -0.5,234.833 -0.5,11.5C 1.83333,5.83333 5.83333,1.83333 11.5,-0.5 Z"/></g>
<g><path style="opacity:1" fill="#fefefe" d="M 187.5,5.5 C 187.5,232.833 187.5,460.167 187.5,687.5C 128.832,687.667 70.1657,687.5 11.5,687C 9.71398,686.215 8.21398,685.049 7,683.5C 5.83727,570.876 5.33727,458.209 5.5,345.5C 5.33522,233.42 5.83522,121.42 7,9.5C 8.21398,7.95118 9.71398,6.78451 11.5,6C 70.1657,5.50001 128.832,5.33334 187.5,5.5 Z"/></g>
<g><path style="opacity:1" fill="#fdfdfe" d="M 187.5,5.5 C 334.833,5.5 482.167,5.5 629.5,5.5C 629.5,74.1667 629.5,142.833 629.5,211.5C 490.833,211.667 352.166,211.5 213.5,211C 211.951,209.786 210.785,208.286 210,206.5C 209.333,174.167 209.333,141.833 210,109.5C 211.167,107 213,105.167 215.5,104C 212.339,103.797 210.172,105.297 209,108.5C 208.333,141.833 208.333,175.167 209,208.5C 210.167,210.333 211.667,211.833 213.5,213C 352.166,213.5 490.833,213.667 629.5,213.5C 629.5,223.167 629.5,232.833 629.5,242.5C 626.654,242.809 625.154,244.475 625,247.5C 624.71,245.956 624.044,244.623 623,243.5C 623.672,250.682 625.338,251.015 628,244.5C 628.198,246.382 628.698,248.048 629.5,249.5C 629.5,273.5 629.5,297.5 629.5,321.5C 490.166,321.333 350.833,321.5 211.5,322C 211,322.5 210.5,323 210,323.5C 209.333,341.5 209.333,359.5 210,377.5C 210.5,378.667 211.333,379.5 212.5,380C 351.5,380.5 490.5,380.667 629.5,380.5C 629.5,384.833 629.5,389.167 629.5,393.5C 490.086,393.003 350.753,393.503 211.5,395C 211,395.5 210.5,396 210,396.5C 209.833,400.833 209.667,405.167 209.5,409.5C 210.708,436.981 211.375,464.481 211.5,492C 211.495,515.549 210.828,538.882 209.5,562C 210.816,569.599 211.483,577.432 211.5,585.5C 211.483,593.568 210.816,601.401 209.5,609C 211.482,629.935 212.149,651.101 211.5,672.5C 350.833,672.5 490.167,672.5 629.5,672.5C 629.5,677.5 629.5,682.5 629.5,687.5C 482.167,687.5 334.833,687.5 187.5,687.5C 187.5,460.167 187.5,232.833 187.5,5.5 Z"/></g>
<g><path style="opacity:1" fill="#163f82" d="M 39.5,32.5 C 38.8166,34.1765 37.4832,34.8432 35.5,34.5C 35.5,33.5 35.5,32.5 35.5,31.5C 33.6916,31.4914 32.0249,31.9914 30.5,33C 31.7996,34.5788 31.4663,35.7455 29.5,36.5C 27.8583,38.0808 25.8583,38.7475 23.5,38.5C 23.5,37.5 23.5,36.5 23.5,35.5C 26.1783,31.9885 29.345,28.9885 33,26.5C 35.6517,27.9855 37.8184,29.9855 39.5,32.5 Z"/></g>
<g><path style="opacity:1" fill="#00204f" d="M 46.5,31.5 C 49.5719,31.1826 52.5719,31.5159 55.5,32.5C 53.604,33.4656 51.604,33.7989 49.5,33.5C 49.5,34.5 49.5,35.5 49.5,36.5C 56.1667,37.1667 56.1667,37.8333 49.5,38.5C 49.5,39.8333 49.5,41.1667 49.5,42.5C 51.604,42.2011 53.604,42.5344 55.5,43.5C 52.5719,44.4841 49.5719,44.8174 46.5,44.5C 46.5,40.1667 46.5,35.8333 46.5,31.5 Z"/></g>
<g><path style="opacity:1" fill="#162a54" d="M 58.5,30.5 C 60.0799,32.7171 61.0799,35.3837 61.5,38.5C 62.7158,35.7495 64.7158,34.5828 67.5,35C 63.8665,37.6622 63.8665,40.4956 67.5,43.5C 67,43.8333 66.5,44.1667 66,44.5C 64.6693,43.0042 63.1693,41.6709 61.5,40.5C 60.8333,41.8333 60.1667,43.1667 59.5,44.5C 58.5067,39.8804 58.1734,35.2137 58.5,30.5 Z"/></g>
<g><path style="opacity:1" fill="#00204f" d="M 82.5,34.5 C 83.7773,35.6936 84.4439,37.3603 84.5,39.5C 84.1667,41.1667 83.8333,42.8333 83.5,44.5C 82.513,41.2317 82.1796,37.8984 82.5,34.5 Z"/></g>
<g><path style="opacity:1" fill="#122753" d="M 106.5,34.5 C 107.496,34.4142 108.329,34.7476 109,35.5C 110.886,43.1921 112.386,42.8587 113.5,34.5C 114.552,34.3505 115.552,34.5172 116.5,35C 114.998,38.0047 113.998,41.1714 113.5,44.5C 112.022,44.762 110.689,44.4287 109.5,43.5C 108.295,40.5504 107.295,37.5504 106.5,34.5 Z"/></g>
<g><path style="opacity:1" fill="#0b74ab" d="M 35.5,34.5 C 35.5299,35.4972 35.0299,36.1639 34,36.5C 32.3227,37.6078 30.8227,37.6078 29.5,36.5C 31.4663,35.7455 31.7996,34.5788 30.5,33C 32.0249,31.9914 33.6916,31.4914 35.5,31.5C 35.5,32.5 35.5,33.5 35.5,34.5 Z"/></g>
<g><path style="opacity:1" fill="#213058" d="M 72.5,34.5 C 79.0673,34.2238 81.0673,37.0571 78.5,43C 73.9294,45.6457 70.9294,44.479 69.5,39.5C 69.7573,37.3076 70.7573,35.6409 72.5,34.5 Z"/></g>
<g><path style="opacity:1" fill="#0b2551" d="M 87.5,34.5 C 89.0174,34.5106 90.1841,35.1772 91,36.5C 91.8184,39.2272 91.6517,41.8938 90.5,44.5C 89.6858,42.2338 89.1858,39.9005 89,37.5C 87.9326,36.8095 86.7659,36.3095 85.5,36C 86.4158,35.7216 87.0825,35.2216 87.5,34.5 Z"/></g>
<g><path style="opacity:1" fill="#213058" d="M 97.5,34.5 C 104.067,34.2238 106.067,37.0571 103.5,43C 98.9294,45.6457 95.9294,44.479 94.5,39.5C 94.7573,37.3076 95.7573,35.6409 97.5,34.5 Z"/></g>
<g><path style="opacity:1" fill="#203059" d="M 119.5,34.5 C 122.206,34.5751 124.873,34.9084 127.5,35.5C 127.817,38.5719 127.484,41.5719 126.5,44.5C 124.89,43.4478 123.223,43.4478 121.5,44.5C 118.918,44.2534 118.085,42.92 119,40.5C 120.826,38.9262 122.993,38.0929 125.5,38C 123.111,37.2612 121.111,36.0946 119.5,34.5 Z"/></g>
<g><path style="opacity:1" fill="#f0f0f1" d="M 72.5,36.5 C 73.8333,36.5 75.1667,36.5 76.5,36.5C 76.5,38.5 76.5,40.5 76.5,42.5C 75.1667,42.5 73.8333,42.5 72.5,42.5C 72.5,40.5 72.5,38.5 72.5,36.5 Z"/></g>
<g><path style="opacity:1" fill="#f0f0f1" d="M 97.5,36.5 C 98.8333,36.5 100.167,36.5 101.5,36.5C 101.5,38.5 101.5,40.5 101.5,42.5C 100.167,42.5 98.8333,42.5 97.5,42.5C 97.5,40.5 97.5,38.5 97.5,36.5 Z"/></g>
<g><path style="opacity:1" fill="#1359bf" d="M 39.5,32.5 C 41.7565,33.5618 42.9232,35.2285 43,37.5C 40.1667,40.3333 37.3333,43.1667 34.5,46C 32.6476,46.7726 31.3143,46.2726 30.5,44.5C 34.026,43.64 36.6927,41.64 38.5,38.5C 37.3112,37.5713 35.9778,37.238 34.5,37.5C 33.483,42.6771 30.8163,44.0105 26.5,41.5C 25.469,40.7515 24.3024,40.0848 23,39.5C 22.235,37.9343 22.4017,36.6009 23.5,35.5C 23.5,36.5 23.5,37.5 23.5,38.5C 25.8583,38.7475 27.8583,38.0808 29.5,36.5C 30.8227,37.6078 32.3227,37.6078 34,36.5C 35.0299,36.1639 35.5299,35.4972 35.5,34.5C 37.4832,34.8432 38.8166,34.1765 39.5,32.5 Z"/></g>
<g><path style="opacity:1" fill="#dbdcdf" d="M 121.5,40.5 C 122.978,40.238 124.311,40.5713 125.5,41.5C 124.833,41.8333 124.167,42.1667 123.5,42.5C 122.287,42.2528 121.62,41.5862 121.5,40.5 Z"/></g>
<g><path style="opacity:1" fill="#198de3" d="M 30.5,44.5 C 28.0274,44.9118 26.6941,43.9118 26.5,41.5C 30.8163,44.0105 33.483,42.6771 34.5,37.5C 35.9778,37.238 37.3112,37.5713 38.5,38.5C 36.6927,41.64 34.026,43.64 30.5,44.5 Z"/></g>
<g><path style="opacity:1" fill="#157ffe" d="M 364.5,41.5 C 365.5,41.5 366.5,41.5 367.5,41.5C 367.5,42.5 367.5,43.5 367.5,44.5C 366.5,44.5 365.5,44.5 364.5,44.5C 364.5,43.5 364.5,42.5 364.5,41.5 Z"/></g>
<g><path style="opacity:1" fill="#000000" d="M 232.5,42.5 C 233.8,44.223 234.467,46.3897 234.5,49C 234.167,51.1667 233.833,53.3333 233.5,55.5C 232.508,51.2172 232.174,46.8839 232.5,42.5 Z"/></g>
<g><path style="opacity:1" fill="#0d0d0d" d="M 237.5,42.5 C 239.22,44.6581 240.053,47.3248 240,50.5C 240.956,49.4214 241.789,48.2547 242.5,47C 243.5,46.3333 244.5,46.3333 245.5,47C 241.745,49.5491 241.745,52.2157 245.5,55C 244.365,55.7494 243.365,55.5827 242.5,54.5C 240.807,50.6777 239.473,51.011 238.5,55.5C 237.508,51.2172 237.174,46.8839 237.5,42.5 Z"/></g>
<g><path style="opacity:1" fill="#2682fd" d="M 324.5,42.5 C 325.978,42.238 327.311,42.5713 328.5,43.5C 330.5,50.1667 332.5,50.1667 334.5,43.5C 335.689,42.5713 337.022,42.238 338.5,42.5C 338.5,47.1667 338.5,51.8333 338.5,56.5C 337.5,56.5 336.5,56.5 335.5,56.5C 335.665,53.4816 335.498,50.4816 335,47.5C 332.667,55.5 330.333,55.5 328,47.5C 327.502,50.4816 327.335,53.4816 327.5,56.5C 326.5,56.5 325.5,56.5 324.5,56.5C 324.5,51.8333 324.5,47.1667 324.5,42.5 Z"/></g>
<g><path style="opacity:1" fill="#121212" d="M 208.5,43.5 C 209.496,43.4142 210.329,43.7476 211,44.5C 212.593,53.7202 214.426,53.7202 216.5,44.5C 217.359,43.2258 218.026,43.3925 218.5,45C 217.189,48.4307 216.189,51.9307 215.5,55.5C 214.178,55.67 213.011,55.3366 212,54.5C 210.722,50.8347 209.556,47.168 208.5,43.5 Z"/></g>
<g><path style="opacity:1" fill="#000000" d="M 221.5,43.5 C 223.337,43.6395 223.67,44.3061 222.5,45.5C 221.702,45.0431 221.369,44.3764 221.5,43.5 Z"/></g>
<g><path style="opacity:1" fill="#2b83fd" d="M 364.5,45.5 C 365.5,45.5 366.5,45.5 367.5,45.5C 367.5,49.1667 367.5,52.8333 367.5,56.5C 366.5,56.5 365.5,56.5 364.5,56.5C 364.5,52.8333 364.5,49.1667 364.5,45.5 Z"/></g>
<g><path style="opacity:1" fill="#3084fd" d="M 370.5,45.5 C 371.5,45.5 372.5,45.5 373.5,45.5C 373.5,48.5 373.5,51.5 373.5,54.5C 374.822,54.67 375.989,54.3366 377,53.5C 377.497,50.854 377.664,48.1873 377.5,45.5C 378.5,45.5 379.5,45.5 380.5,45.5C 380.5,49.1667 380.5,52.8333 380.5,56.5C 377.319,56.0245 374.153,55.6912 371,55.5C 370.502,52.1832 370.335,48.8499 370.5,45.5 Z"/></g>
<g><path style="opacity:1" fill="#000000" d="M 259.5,46.5 C 260.765,47.5145 261.431,49.0145 261.5,51C 261.167,52.5 260.833,54 260.5,55.5C 259.516,52.5719 259.183,49.5719 259.5,46.5 Z"/></g>
<g><path style="opacity:1" fill="#000000" d="M 276.5,46.5 C 277.765,47.5145 278.431,49.0145 278.5,51C 278.167,52.5 277.833,54 277.5,55.5C 276.516,52.5719 276.183,49.5719 276.5,46.5 Z"/></g>
<g><path style="opacity:1" fill="#000000" d="M 304.5,46.5 C 305.765,47.5145 306.431,49.0145 306.5,51C 306.167,52.5 305.833,54 305.5,55.5C 304.516,52.5719 304.183,49.5719 304.5,46.5 Z"/></g>
<g><path style="opacity:1" fill="#3d87fd" d="M 342.5,45.5 C 350.838,44.5181 353.838,48.1848 351.5,56.5C 348.587,56.2764 345.587,55.9431 342.5,55.5C 341.32,50.8326 343.32,48.6659 348.5,49C 346.798,47.2816 344.965,47.115 343,48.5C 342.517,47.552 342.351,46.552 342.5,45.5 Z"/></g>
<g><path style="opacity:1" fill="#4d8cfd" d="M 385.5,45.5 C 387.833,45.5 390.167,45.5 392.5,45.5C 392.649,46.552 392.483,47.552 392,48.5C 390.506,47.2528 389.006,47.2528 387.5,48.5C 391.342,49.2667 393.009,51.6001 392.5,55.5C 389.607,56.523 386.774,56.523 384,55.5C 383.333,54.5 383.333,53.5 384,52.5C 385.555,54.5152 387.389,54.8485 389.5,53.5C 383.865,52.6045 382.532,49.9378 385.5,45.5 Z"/></g>
<g><path style="opacity:1" fill="#191919" d="M 221.5,47.5 C 223.56,46.1888 225.726,46.1888 228,47.5C 228.818,50.2272 228.652,52.8938 227.5,55.5C 226.77,53.6587 226.103,51.8254 225.5,50C 225.833,49.6667 226.167,49.3333 226.5,49C 225.095,47.7308 223.429,47.2308 221.5,47.5 Z"/></g>
<g><path style="opacity:1" fill="#2a2a2a" d="M 263.5,47.5 C 264.793,46.3552 265.959,46.6885 267,48.5C 267.497,50.8098 267.663,53.1432 267.5,55.5C 266.5,55.5 265.5,55.5 264.5,55.5C 264.806,52.6146 264.473,49.9479 263.5,47.5 Z"/></g>
<g><path style="opacity:1" fill="#0c0c0c" d="M 269.5,47.5 C 270.189,46.2264 271.023,46.2264 272,47.5C 272.818,50.2272 272.652,52.8938 271.5,55.5C 270.832,52.6944 270.166,50.0277 269.5,47.5 Z"/></g>
<g><path style="opacity:1" fill="#2a2a2a" d="M 280.5,47.5 C 281.793,46.3552 282.959,46.6885 284,48.5C 284.497,50.8098 284.663,53.1432 284.5,55.5C 283.5,55.5 282.5,55.5 281.5,55.5C 281.806,52.6146 281.473,49.9479 280.5,47.5 Z"/></g>
<g><path style="opacity:1" fill="#0c0c0c" d="M 286.5,47.5 C 287.189,46.2264 288.023,46.2264 289,47.5C 289.818,50.2272 289.652,52.8938 288.5,55.5C 287.832,52.6944 287.166,50.0277 286.5,47.5 Z"/></g>
<g><path style="opacity:1" fill="#292929" d="M 298.5,47.5 C 299.995,47.4148 300.995,48.0815 301.5,49.5C 299.167,50.1667 296.833,50.8333 294.5,51.5C 296.153,54.4391 298.486,55.2724 301.5,54C 295.226,57.2261 292.393,55.3927 293,48.5C 294.678,46.4468 296.511,46.1134 298.5,47.5 Z"/></g>
<g><path style="opacity:1" fill="#e8e8e8" d="M 298.5,47.5 C 297.796,49.3442 296.463,49.8442 294.5,49C 295.563,47.8118 296.897,47.3118 298.5,47.5 Z"/></g>
<g><path style="opacity:1" fill="#000000" d="M 311.5,47.5 C 313.177,50.6154 312.844,53.2821 310.5,55.5C 310.194,52.6146 310.527,49.9479 311.5,47.5 Z"/></g>
<g><path style="opacity:1" fill="#252525" d="M 253.5,47.5 C 249.527,48.0755 248.527,50.2421 250.5,54C 251.448,54.4828 252.448,54.6495 253.5,54.5C 250.048,56.257 248.048,55.0904 247.5,51C 248.048,46.9096 250.048,45.743 253.5,47.5 Z"/></g>
<g><path style="opacity:1" fill="#d9d9d9" d="M 253.5,47.5 C 254.833,49.8333 254.833,52.1667 253.5,54.5C 252.448,54.6495 251.448,54.4828 250.5,54C 248.527,50.2421 249.527,48.0755 253.5,47.5 Z"/></g>
<g><path style="opacity:1" fill="#171717" d="M 253.5,47.5 C 255.722,47.5587 256.722,48.7253 256.5,51C 256.722,53.2747 255.722,54.4413 253.5,54.5C 254.833,52.1667 254.833,49.8333 253.5,47.5 Z"/></g>
<g><path style="opacity:1" fill="#3b87fd" d="M 355.5,45.5 C 357.584,46.2483 359.584,46.2483 361.5,45.5C 361.833,45.8333 362.167,46.1667 362.5,46.5C 361.311,47.4287 359.978,47.762 358.5,47.5C 358.5,50.5 358.5,53.5 358.5,56.5C 357.5,56.5 356.5,56.5 355.5,56.5C 355.5,52.8333 355.5,49.1667 355.5,45.5 Z"/></g>
<g><path style="opacity:1" fill="#191919" d="M 221.5,50.5 C 223.765,50.4406 224.098,51.2739 222.5,53C 222.905,53.9454 223.572,54.6121 224.5,55C 220.707,55.4866 219.707,53.9866 221.5,50.5 Z"/></g>
<g><path style="opacity:1" fill="#838383" d="M 311.5,47.5 C 310.527,49.9479 310.194,52.6146 310.5,55.5C 309.795,52.7719 309.128,49.9386 308.5,47C 309.749,46.2599 310.749,46.4265 311.5,47.5 Z"/></g>
<g><path style="opacity:1" fill="#050505" d="M 315.5,52.5 C 316.376,52.3691 317.043,52.7025 317.5,53.5C 314.674,60.0779 314.007,59.7446 315.5,52.5 Z"/></g>
<g><path style="opacity:1" fill="#e8edfe" d="M 345.5,51.5 C 346.5,51.5 347.5,51.5 348.5,51.5C 348.5,52.5 348.5,53.5 348.5,54.5C 345.433,54.8795 344.433,53.8795 345.5,51.5 Z"/></g>
<g><path style="opacity:1" fill="#e0e3e9" d="M 24.5,62.5 C 73.3104,62.0051 121.977,62.5051 170.5,64C 121.871,63.172 73.2043,63.3387 24.5,64.5C 23.537,64.0302 23.537,63.3635 24.5,62.5 Z"/></g>
<g><path style="opacity:1" fill="#c3c3c4" d="M 410.5,70.5 C 412.048,70.8212 412.715,71.8212 412.5,73.5C 416.252,73.5007 417.252,75.1674 415.5,78.5C 413.942,73.3055 412.942,73.3055 412.5,78.5C 408.206,77.873 404.039,77.5397 400,77.5C 399.316,76.2161 399.483,75.0495 400.5,74C 403.856,74.6129 407.19,74.4462 410.5,73.5C 410.5,72.5 410.5,71.5 410.5,70.5 Z"/></g>
<g><path style="opacity:1" fill="#717274" d="M 356.5,71.5 C 358.039,73.9818 359.539,73.9818 361,71.5C 361.5,72.6667 362.333,73.5 363.5,74C 360.833,75.3333 360.833,76.6667 363.5,78C 362.552,78.4828 361.552,78.6495 360.5,78.5C 360.5,77.1667 360.5,75.8333 360.5,74.5C 359.5,74.5 358.5,74.5 357.5,74.5C 357.36,76.1238 358.027,77.2904 359.5,78C 358.552,78.4828 357.552,78.6495 356.5,78.5C 356.5,76.1667 356.5,73.8333 356.5,71.5 Z"/></g>
<g><path style="opacity:1" fill="#4c4d50" d="M 210.5,71.5 C 215.041,71.3309 215.374,71.9975 211.5,73.5C 215.311,74.7376 215.311,75.4042 211.5,75.5C 211.649,76.552 211.483,77.552 211,78.5C 210.503,76.1902 210.337,73.8568 210.5,71.5 Z"/></g>
<g><path style="opacity:1" fill="#757678" d="M 226.5,71.5 C 227.309,72.4687 228.309,73.3021 229.5,74C 226.833,75.3333 226.833,76.6667 229.5,78C 228.552,78.4828 227.552,78.6495 226.5,78.5C 226.5,76.1667 226.5,73.8333 226.5,71.5 Z"/></g>
<g><path style="opacity:1" fill="#757678" d="M 267.5,71.5 C 268.309,72.4687 269.309,73.3021 270.5,74C 267.833,75.3333 267.833,76.6667 270.5,78C 269.552,78.4828 268.552,78.6495 267.5,78.5C 267.5,76.1667 267.5,73.8333 267.5,71.5 Z"/></g>
<g><path style="opacity:1" fill="#757678" d="M 386.5,71.5 C 387.309,72.4687 388.309,73.3021 389.5,74C 386.833,75.3333 386.833,76.6667 389.5,78C 388.552,78.4828 387.552,78.6495 386.5,78.5C 386.5,76.1667 386.5,73.8333 386.5,71.5 Z"/></g>
<g><path style="opacity:1" fill="#757578" d="M 446.5,71.5 C 447.309,72.4687 448.309,73.3021 449.5,74C 446.833,75.3333 446.833,76.6667 449.5,78C 448.552,78.4828 447.552,78.6495 446.5,78.5C 446.5,76.1667 446.5,73.8333 446.5,71.5 Z"/></g>
<g><path style="opacity:1" fill="#757578" d="M 483.5,71.5 C 484.309,72.4687 485.309,73.3021 486.5,74C 483.833,75.3333 483.833,76.6667 486.5,78C 485.552,78.4828 484.552,78.6495 483.5,78.5C 483.5,76.1667 483.5,73.8333 483.5,71.5 Z"/></g>
<g><path style="opacity:1" fill="#696a6c" d="M 522.5,71.5 C 524.368,73.398 524.535,75.7314 523,78.5C 522.503,76.1902 522.337,73.8568 522.5,71.5 Z"/></g>
<g><path style="opacity:1" fill="#696a6c" d="M 526.5,71.5 C 528.368,73.398 528.535,75.7314 527,78.5C 526.503,76.1902 526.337,73.8568 526.5,71.5 Z"/></g>
<g><path style="opacity:1" fill="#757678" d="M 542.5,71.5 C 543.309,72.4687 544.309,73.3021 545.5,74C 542.833,75.3333 542.833,76.6667 545.5,78C 544.552,78.4828 543.552,78.6495 542.5,78.5C 542.5,76.1667 542.5,73.8333 542.5,71.5 Z"/></g>
<g><path style="opacity:1" fill="#6f7387" d="M 59.5,74.5 C 64.3276,74.3852 65.6609,76.5519 63.5,81C 58.5705,81.427 57.2372,79.2604 59.5,74.5 Z"/></g>
<g><path style="opacity:1" fill="#aaaaab" d="M 251.5,73.5 C 253.722,73.178 255.556,73.8446 257,75.5C 258.11,73.9632 259.61,73.2965 261.5,73.5C 262.654,79.0784 261.154,80.4117 257,77.5C 256.586,77.9574 256.086,78.2907 255.5,78.5C 254.075,73.2702 252.909,73.2702 252,78.5C 251.506,76.8659 251.34,75.1992 251.5,73.5 Z"/></g>
<g><path style="opacity:1" fill="#bfc0c1" d="M 284.5,73.5 C 286.861,73.6741 289.194,74.0074 291.5,74.5C 291.5,75.5 291.5,76.5 291.5,77.5C 294.481,77.544 294.814,77.8773 292.5,78.5C 289.898,77.9455 287.231,77.7788 284.5,78C 283.272,76.5098 283.272,75.0098 284.5,73.5 Z"/></g>
<g><path style="opacity:1" fill="#a7a7a8" d="M 295.5,70.5 C 296.404,71.209 296.737,72.209 296.5,73.5C 300.252,73.5007 301.252,75.1674 299.5,78.5C 298.075,73.2702 296.909,73.2702 296,78.5C 295.503,75.854 295.336,73.1873 295.5,70.5 Z"/></g>
<g><path style="opacity:1" fill="#9f9fa1" d="M 305.5,70.5 C 306.404,71.209 306.737,72.209 306.5,73.5C 308.911,73.1367 310.411,74.1367 311,76.5C 314.527,73.3788 316.027,74.0455 315.5,78.5C 313.326,78.0798 311.326,78.0798 309.5,78.5C 308.075,73.2702 306.909,73.2702 306,78.5C 305.503,75.854 305.336,73.1873 305.5,70.5 Z"/></g>
<g><path style="opacity:1" fill="#a9a9aa" d="M 317.5,73.5 C 321.909,72.899 323.242,74.5657 321.5,78.5C 320.075,73.2702 318.909,73.2702 318,78.5C 317.506,76.8659 317.34,75.1992 317.5,73.5 Z"/></g>
<g><path style="opacity:1" fill="#87888a" d="M 333.5,73.5 C 334.552,73.3505 335.552,73.5172 336.5,74C 335.107,75.1711 334.273,76.6711 334,78.5C 333.506,76.8659 333.34,75.1992 333.5,73.5 Z"/></g>
<g><path style="opacity:1" fill="#adadae" d="M 374.5,73.5 C 375.978,73.238 377.311,73.5713 378.5,74.5C 377.384,74.402 376.384,74.902 375.5,76C 376.384,77.098 377.384,77.598 378.5,77.5C 374.14,79.1403 372.807,77.807 374.5,73.5 Z"/></g>
<g><path style="opacity:1" fill="#a9a9aa" d="M 380.5,73.5 C 384.909,72.899 386.242,74.5657 384.5,78.5C 383.075,73.2702 381.909,73.2702 381,78.5C 380.506,76.8659 380.34,75.1992 380.5,73.5 Z"/></g>
<g><path style="opacity:1" fill="#a0a0a2" d="M 430.5,73.5 C 433.238,72.9648 435.072,73.9648 436,76.5C 439.527,73.3788 441.027,74.0455 440.5,78.5C 438.326,78.0798 436.326,78.0798 434.5,78.5C 433.075,73.2702 431.909,73.2702 431,78.5C 430.506,76.8659 430.34,75.1992 430.5,73.5 Z"/></g>
<g><path style="opacity:1" fill="#87888a" d="M 450.5,73.5 C 451.552,73.3505 452.552,73.5172 453.5,74C 452.107,75.1711 451.273,76.6711 451,78.5C 450.506,76.8659 450.34,75.1992 450.5,73.5 Z"/></g>
<g><path style="opacity:1" fill="#9e9e9f" d="M 460.5,73.5 C 463.089,74.1273 465.589,74.1273 468,73.5C 469.762,73.9444 469.595,74.4444 467.5,75C 470.039,76.6757 472.539,76.509 475,74.5C 475.49,75.7932 475.657,77.1266 475.5,78.5C 471.577,77.7569 467.577,77.7569 463.5,78.5C 462.968,73.203 462.134,73.203 461,78.5C 460.506,76.8659 460.34,75.1992 460.5,73.5 Z"/></g>
<g><path style="opacity:1" fill="#acacad" d="M 490.5,73.5 C 491.978,73.238 493.311,73.5713 494.5,74.5C 493.384,74.402 492.384,74.902 491.5,76C 492.384,77.098 493.384,77.598 494.5,77.5C 490.14,79.1403 488.807,77.807 490.5,73.5 Z"/></g>
<g><path style="opacity:1" fill="#9a9b9c" d="M 496.5,73.5 C 499.833,74.8333 503.167,74.8333 506.5,73.5C 506.5,74.5 506.5,75.5 506.5,76.5C 502.551,76.6932 502.551,77.1932 506.5,78C 504.343,78.0781 502.343,78.2448 500.5,78.5C 499.075,73.2702 497.909,73.2702 497,78.5C 496.506,76.8659 496.34,75.1992 496.5,73.5 Z"/></g>
<g><path style="opacity:1" fill="#87888a" d="M 508.5,73.5 C 509.552,73.3505 510.552,73.5172 511.5,74C 510.107,75.1711 509.273,76.6711 509,78.5C 508.506,76.8659 508.34,75.1992 508.5,73.5 Z"/></g>
<g><path style="opacity:1" fill="#98999a" d="M 555.5,71.5 C 556.309,72.4687 557.309,73.3021 558.5,74C 555.833,75.3333 555.833,76.6667 558.5,78C 557.552,78.4828 556.552,78.6495 555.5,78.5C 555.762,77.0222 555.429,75.6888 554.5,74.5C 553.5,75.8333 552.5,77.1667 551.5,78.5C 550.376,77.086 549.376,75.586 548.5,74C 549.742,73.6886 550.742,74.1886 551.5,75.5C 553.2,74.3901 554.534,73.0568 555.5,71.5 Z"/></g>
<g><path style="opacity:1" fill="#f8f8f9" d="M 60.5,75.5 C 63.9563,76.5362 64.2896,78.2029 61.5,80.5C 59.2957,79.218 58.9624,77.5514 60.5,75.5 Z"/></g>
<g><path style="opacity:1" fill="#7d7d7e" d="M 368.5,70.5 C 369.302,71.9516 369.802,73.6183 370,75.5C 370.889,74.1118 371.389,74.2785 371.5,76C 370.527,76.3491 369.694,77.1824 369,78.5C 368.503,75.854 368.336,73.1873 368.5,70.5 Z"/></g>
<g><path style="opacity:1" fill="#717173" d="M 477.5,70.5 C 478.224,72.2184 478.891,74.0517 479.5,76C 478.874,76.7504 478.374,77.5838 478,78.5C 477.503,75.854 477.336,73.1873 477.5,70.5 Z"/></g>
<g><path style="opacity:1" fill="#7d7d7e" d="M 536.5,70.5 C 537.302,71.9516 537.802,73.6183 538,75.5C 538.889,74.1118 539.389,74.2785 539.5,76C 538.527,76.3491 537.694,77.1824 537,78.5C 536.503,75.854 536.336,73.1873 536.5,70.5 Z"/></g>
<g><path style="opacity:1" fill="#676c81" d="M 50.5,72.5 C 51.8734,72.3433 53.2068,72.51 54.5,73C 52.9559,73.2896 51.6226,73.9563 50.5,75C 52.2194,76.0569 54.0528,76.8903 56,77.5C 56.6114,81.0876 55.1114,82.2542 51.5,81C 53.0441,80.7104 54.3774,80.0437 55.5,79C 53.7806,77.9431 51.9472,77.1097 50,76.5C 49.4209,75.0715 49.5876,73.7382 50.5,72.5 Z"/></g>
<g><path style="opacity:1" fill="#89898b" d="M 219.5,74.5 C 220.434,75.5676 220.768,76.901 220.5,78.5C 219.167,78.5 217.833,78.5 216.5,78.5C 216.5,77.5 216.5,76.5 216.5,75.5C 217.791,75.7373 218.791,75.404 219.5,74.5 Z"/></g>
<g><path style="opacity:1" fill="#878789" d="M 240.5,74.5 C 241.209,73.596 242.209,73.2627 243.5,73.5C 243.662,75.5273 243.495,77.5273 243,79.5C 242.25,78.8742 241.416,78.3742 240.5,78C 243.125,76.6243 243.125,75.4577 240.5,74.5 Z"/></g>
<g><path style="opacity:1" fill="#89898b" d="M 248.5,74.5 C 249.434,75.5676 249.768,76.901 249.5,78.5C 248.167,78.5 246.833,78.5 245.5,78.5C 245.5,77.5 245.5,76.5 245.5,75.5C 246.791,75.7373 247.791,75.404 248.5,74.5 Z"/></g>
<g><path style="opacity:1" fill="#9c9d9e" d="M 323.5,71.5 C 324.474,72.635 325.641,73.635 327,74.5C 328.356,73.6198 329.856,73.2865 331.5,73.5C 331.5,74.5 331.5,75.5 331.5,76.5C 327.551,76.6932 327.551,77.1932 331.5,78C 328.729,77.6533 326.062,77.82 323.5,78.5C 323.5,76.1667 323.5,73.8333 323.5,71.5 Z"/></g>
<g><path style="opacity:1" fill="#89898b" d="M 340.5,74.5 C 341.434,75.5676 341.768,76.901 341.5,78.5C 340.167,78.5 338.833,78.5 337.5,78.5C 337.5,77.5 337.5,76.5 337.5,75.5C 338.791,75.7373 339.791,75.404 340.5,74.5 Z"/></g>
<g><path style="opacity:1" fill="#89898b" d="M 348.5,74.5 C 349.209,73.596 350.209,73.2627 351.5,73.5C 351.5,75.1667 351.5,76.8333 351.5,78.5C 347.944,78.7251 347.61,77.8918 350.5,76C 350.164,74.9701 349.497,74.4701 348.5,74.5 Z"/></g>
<g><path style="opacity:1" fill="#89898b" d="M 422.5,74.5 C 423.209,73.596 424.209,73.2627 425.5,73.5C 425.5,75.1667 425.5,76.8333 425.5,78.5C 421.944,78.7251 421.61,77.8918 424.5,76C 424.164,74.9701 423.497,74.4701 422.5,74.5 Z"/></g>
<g><path style="opacity:1" fill="#88898b" d="M 457.5,74.5 C 458.434,75.5676 458.768,76.901 458.5,78.5C 457.167,78.5 455.833,78.5 454.5,78.5C 454.5,77.5 454.5,76.5 454.5,75.5C 455.791,75.7373 456.791,75.404 457.5,74.5 Z"/></g>
<g><path style="opacity:1" fill="#999a9b" d="M 516.5,73.5 C 522.344,73.9801 522.678,75.1468 517.5,77C 518.5,77.3333 519.5,77.6667 520.5,78C 516.077,79.0814 514.744,77.5814 516.5,73.5 Z"/></g>
<g><path style="opacity:1" fill="#999a9b" d="M 530.5,73.5 C 536.344,73.9801 536.678,75.1468 531.5,77C 532.5,77.3333 533.5,77.6667 534.5,78C 530.077,79.0814 528.744,77.5814 530.5,73.5 Z"/></g>
<g><path style="opacity:1" fill="#8c8f9d" d="M 66.5,71.5 C 67.1646,73.3691 67.8313,75.3691 68.5,77.5C 69.9814,78.4803 71.3147,79.647 72.5,81C 71.0039,81.5074 69.8373,81.0074 69,79.5C 68.6924,80.3081 68.1924,80.9747 67.5,81.5C 66.513,78.2317 66.1796,74.8984 66.5,71.5 Z"/></g>
<g><path style="opacity:1" fill="#99a0ae" d="M 34.5,71.5 C 37.6516,70.9586 40.1516,71.9586 42,74.5C 41.8959,77.2708 41.8959,79.9374 42,82.5C 40.3963,81.3507 38.7297,81.3507 37,82.5C 30.9007,80.0347 30.0674,76.3681 34.5,71.5 Z"/></g>
<g><path style="opacity:1" fill="#f9f9fa" d="M 35.5,72.5 C 40.2624,73.0925 41.5957,75.5925 39.5,80C 33.2016,80.4954 31.8682,77.9954 35.5,72.5 Z"/></g>
<g><path style="opacity:1" fill="#0d7dfe" d="M 19.5,107.5 C 31.5,107.5 43.5,107.5 55.5,107.5C 56.8333,111.5 56.8333,115.5 55.5,119.5C 52.8127,119.336 50.146,119.503 47.5,120C 44.9086,123.297 44.9086,126.631 47.5,130C 50.833,131.229 53.833,132.896 56.5,135C 56.3686,137.253 56.0353,139.419 55.5,141.5C 43.1847,142.499 30.8513,142.832 18.5,142.5C 17.8826,142.389 17.3826,142.056 17,141.5C 16.3333,130.5 16.3333,119.5 17,108.5C 17.6708,107.748 18.5041,107.414 19.5,107.5 Z"/></g>
<g><path style="opacity:1" fill="#2385fe" d="M 55.5,107.5 C 75.8361,107.333 96.1694,107.5 116.5,108C 116.791,110.126 117.457,112.46 118.5,115C 117.65,118.214 117.65,121.214 118.5,124C 118.241,125.261 117.574,126.261 116.5,127C 116.534,132.292 116.868,137.292 117.5,142C 108.99,142.171 100.657,142.671 92.5,143.5C 67.661,143.831 42.9944,143.498 18.5,142.5C 30.8513,142.832 43.1847,142.499 55.5,141.5C 56.0353,139.419 56.3686,137.253 56.5,135C 53.833,132.896 50.833,131.229 47.5,130C 44.9086,126.631 44.9086,123.297 47.5,120C 50.146,119.503 52.8127,119.336 55.5,119.5C 56.8333,115.5 56.8333,111.5 55.5,107.5 Z"/></g>
<g><path style="opacity:1" fill="#4592ff" d="M 19.5,107.5 C 71.3317,106.335 123.332,106.168 175.5,107C 176,107.5 176.5,108 177,108.5C 177.167,114.167 177.333,119.833 177.5,125.5C 177.475,131.577 176.809,137.41 175.5,143C 147.835,143.5 120.169,143.667 92.5,143.5C 100.657,142.671 108.99,142.171 117.5,142C 116.868,137.292 116.534,132.292 116.5,127C 117.574,126.261 118.241,125.261 118.5,124C 117.65,121.214 117.65,118.214 118.5,115C 117.457,112.46 116.791,110.126 116.5,108C 96.1694,107.5 75.8361,107.333 55.5,107.5C 43.5,107.5 31.5,107.5 19.5,107.5 Z"/></g>
<g><path style="opacity:1" fill="#a7ceff" d="M 27.5,121.5 C 30.4827,117.703 33.816,117.536 37.5,121C 40.1667,124.667 40.1667,128.333 37.5,132C 33.8333,132.667 30.1667,132.667 26.5,132C 25.8729,130.262 25.5396,128.429 25.5,126.5C 25.5561,124.36 26.2227,122.694 27.5,121.5 Z"/></g>
<g><path style="opacity:1" fill="#2181fe" d="M 27.5,121.5 C 29.0936,121.08 30.5936,120.414 32,119.5C 37.2269,121.349 38.8935,125.015 37,130.5C 27.4257,134.091 24.2591,131.091 27.5,121.5 Z"/></g>
<g><path style="opacity:1" fill="#e9f2ff" d="M 263.5,118.5 C 263.5,121.833 263.5,125.167 263.5,128.5C 246.567,130.435 236.9,139.768 234.5,156.5C 234.5,155.5 234.5,154.5 234.5,153.5C 231.5,153.5 228.5,153.5 225.5,153.5C 225.5,156.5 225.5,159.5 225.5,162.5C 224.715,136.597 237.381,121.93 263.5,118.5 Z"/></g>
<g><path style="opacity:1" fill="#1b7dfe" d="M 263.5,118.5 C 281.404,119.426 293.737,128.092 300.5,144.5C 298.021,146.568 295.021,147.901 291.5,148.5C 286.471,135.972 277.138,129.305 263.5,128.5C 263.5,125.167 263.5,121.833 263.5,118.5 Z"/></g>
<g><path style="opacity:1" fill="#151515" d="M 352.5,121.5 C 352.298,123.95 352.631,126.283 353.5,128.5C 353.631,129.376 353.298,130.043 352.5,130.5C 351.197,127.355 351.197,124.355 352.5,121.5 Z"/></g>
<g><path style="opacity:1" fill="#161616" d="M 333.5,126.5 C 332.5,126.5 331.5,126.5 330.5,126.5C 330.5,127.5 330.5,128.5 330.5,129.5C 331.5,129.5 332.5,129.5 333.5,129.5C 332.081,130.451 330.415,130.784 328.5,130.5C 328.5,127.833 328.5,125.167 328.5,122.5C 330.199,122.34 331.866,122.506 333.5,123C 334.684,124.145 334.684,125.312 333.5,126.5 Z"/></g>
<g><path style="opacity:1" fill="#181818" d="M 366.5,127.5 C 365.141,128.007 364.141,129.007 363.5,130.5C 362.167,127.833 362.167,125.167 363.5,122.5C 364.251,123.376 364.751,124.376 365,125.5C 366.113,123.671 367.613,122.837 369.5,123C 367.859,124.129 366.859,125.629 366.5,127.5 Z"/></g>
<g><path style="opacity:1" fill="#3084fd" d="M 608.5,121.5 C 609.451,122.919 609.784,124.585 609.5,126.5C 613.172,127.045 612.838,127.378 608.5,127.5C 608.5,125.5 608.5,123.5 608.5,121.5 Z"/></g>
<g><path style="opacity:1" fill="#e0e6fe" d="M 63.5,123.5 C 66.1873,123.336 68.854,123.503 71.5,124C 72.5762,125.726 72.7429,127.559 72,129.5C 70.6667,122.833 69.3333,122.833 68,129.5C 66.8944,123.044 65.5611,123.044 64,129.5C 63.5045,127.527 63.3379,125.527 63.5,123.5 Z"/></g>
<g><path style="opacity:1" fill="#f4f4f4" d="M 330.5,123.5 C 332.337,123.639 332.67,124.306 331.5,125.5C 330.702,125.043 330.369,124.376 330.5,123.5 Z"/></g>
<g><path style="opacity:1" fill="#f7f8fe" d="M 48.5,121.5 C 49.404,122.209 49.7373,123.209 49.5,124.5C 50.8333,124.5 52.1667,124.5 53.5,124.5C 54.7726,126.084 54.7726,126.418 53.5,125.5C 52.1667,125.5 50.8333,125.5 49.5,125.5C 49.6567,126.873 49.49,128.207 49,129.5C 48.5026,126.854 48.3359,124.187 48.5,121.5 Z"/></g>
<g><path style="opacity:1" fill="#eef1fe" d="M 56.5,124.5 C 58.3218,125.325 59.9885,125.658 61.5,125.5C 60.2713,126.281 58.938,126.781 57.5,127C 58.8412,128.295 60.1745,128.795 61.5,128.5C 59.9547,129.452 58.288,129.785 56.5,129.5C 56.5,127.833 56.5,126.167 56.5,124.5 Z"/></g>
<g><path style="opacity:1" fill="#363636" d="M 386.5,122.5 C 389.138,123.436 389.805,125.103 388.5,127.5C 388.818,128.647 389.484,129.481 390.5,130C 389.216,130.684 388.049,130.517 387,129.5C 386.503,127.19 386.337,124.857 386.5,122.5 Z"/></g>
<g><path style="opacity:1" fill="#4a99fe" d="M 596.5,121.5 C 597.404,122.209 597.737,123.209 597.5,124.5C 602.833,124.833 602.833,125.167 597.5,125.5C 597.167,130.833 596.833,130.833 596.5,125.5C 591.167,125.167 591.167,124.833 596.5,124.5C 596.5,123.5 596.5,122.5 596.5,121.5 Z"/></g>
<g><path style="opacity:1" fill="#171717" d="M 324.5,123.5 C 325.887,125.489 325.553,127.322 323.5,129C 324.5,129.333 325.5,129.667 326.5,130C 320.136,131.387 319.302,130.221 324,126.5C 324.483,125.552 324.649,124.552 324.5,123.5 Z"/></g>
<g><path style="opacity:1" fill="#eaeaea" d="M 333.5,126.5 C 333.5,127.5 333.5,128.5 333.5,129.5C 332.5,129.5 331.5,129.5 330.5,129.5C 330.5,128.5 330.5,127.5 330.5,126.5C 331.5,126.5 332.5,126.5 333.5,126.5 Z"/></g>
<g><path style="opacity:1" fill="#424242" d="M 340.5,125.5 C 341.613,126.946 341.78,128.613 341,130.5C 340.751,129.376 340.251,128.376 339.5,127.5C 338.289,128.274 338.289,129.107 339.5,130C 337.333,130.5 336.5,129.667 337,127.5C 338.302,126.915 339.469,126.249 340.5,125.5 Z"/></g>
<g><path style="opacity:1" fill="#454545" d="M 343.5,124.5 C 344.693,124.97 345.36,125.97 345.5,127.5C 345.167,128.5 344.833,129.5 344.5,130.5C 343.534,128.604 343.201,126.604 343.5,124.5 Z"/></g>
<g><path style="opacity:1" fill="#3b3b3b" d="M 352.5,121.5 C 353.302,122.952 353.802,124.618 354,126.5C 357.476,123.814 357.976,124.147 355.5,127.5C 357.813,131.02 357.147,131.353 353.5,128.5C 352.631,126.283 352.298,123.95 352.5,121.5 Z"/></g>
<g><path style="opacity:1" fill="#3a3a3a" d="M 374.5,125.5 C 370.5,126.833 370.5,128.167 374.5,129.5C 372.316,130.983 370.983,130.316 370.5,127.5C 370.983,124.684 372.316,124.017 374.5,125.5 Z"/></g>
<g><path style="opacity:1" fill="#e9e9e9" d="M 374.5,125.5 C 374.5,126.833 374.5,128.167 374.5,129.5C 370.5,128.167 370.5,126.833 374.5,125.5 Z"/></g>
<g><path style="opacity:1" fill="#252525" d="M 374.5,125.5 C 377.167,126.833 377.167,128.167 374.5,129.5C 374.5,128.167 374.5,126.833 374.5,125.5 Z"/></g>
<g><path style="opacity:1" fill="#454545" d="M 378.5,124.5 C 379.693,124.97 380.36,125.97 380.5,127.5C 380.167,128.5 379.833,129.5 379.5,130.5C 378.534,128.604 378.201,126.604 378.5,124.5 Z"/></g>
<g><path style="opacity:1" fill="#3a3a3a" d="M 395.5,125.5 C 391.5,126.833 391.5,128.167 395.5,129.5C 393.316,130.983 391.983,130.316 391.5,127.5C 391.983,124.684 393.316,124.017 395.5,125.5 Z"/></g>
<g><path style="opacity:1" fill="#e9e9e9" d="M 395.5,125.5 C 395.5,126.833 395.5,128.167 395.5,129.5C 391.5,128.167 391.5,126.833 395.5,125.5 Z"/></g>
<g><path style="opacity:1" fill="#252525" d="M 395.5,125.5 C 398.167,126.833 398.167,128.167 395.5,129.5C 395.5,128.167 395.5,126.833 395.5,125.5 Z"/></g>
<g><path style="opacity:1" fill="#454545" d="M 399.5,124.5 C 400.693,124.97 401.36,125.97 401.5,127.5C 401.167,128.5 400.833,129.5 400.5,130.5C 399.534,128.604 399.201,126.604 399.5,124.5 Z"/></g>
<g><path style="opacity:1" fill="#91aefd" d="M 613.5,121.5 C 614.397,122.598 615.23,122.598 616,121.5C 616.419,122.672 617.085,123.672 618,124.5C 619.049,122.893 620.549,122.227 622.5,122.5C 622.662,124.527 622.495,126.527 622,128.5C 620.989,129.337 619.822,129.67 618.5,129.5C 618.649,128.448 618.483,127.448 618,126.5C 616.644,127.38 615.144,127.714 613.5,127.5C 613.5,125.5 613.5,123.5 613.5,121.5 Z"/></g>
<g><path style="opacity:1" fill="#6697fd" d="M 624.5,123.5 C 625.794,127.223 626.961,127.223 628,123.5C 628.798,125.259 628.631,126.926 627.5,128.5C 625.227,127.625 624.227,125.958 624.5,123.5 Z"/></g>
<g><path style="opacity:1" fill="#525252" d="M 333.5,126.5 C 335.985,127.26 335.985,128.26 333.5,129.5C 333.5,128.5 333.5,127.5 333.5,126.5 Z"/></g>
<g><path style="opacity:1" fill="#303030" d="M 346.5,125.5 C 347.189,124.226 348.023,124.226 349,125.5C 349.798,127.259 349.631,128.926 348.5,130.5C 347.83,128.709 347.163,127.042 346.5,125.5 Z"/></g>
<g><path style="opacity:1" fill="#303030" d="M 381.5,125.5 C 382.189,124.226 383.023,124.226 384,125.5C 384.798,127.259 384.631,128.926 383.5,130.5C 382.83,128.709 382.163,127.042 381.5,125.5 Z"/></g>
<g><path style="opacity:1" fill="#303030" d="M 402.5,125.5 C 403.189,124.226 404.023,124.226 405,125.5C 405.798,127.259 405.631,128.926 404.5,130.5C 403.83,128.709 403.163,127.042 402.5,125.5 Z"/></g>
<g><path style="opacity:1" fill="#fdfeff" d="M 263.5,128.5 C 277.138,129.305 286.471,135.972 291.5,148.5C 295.451,165.1 289.784,177.267 274.5,185C 268.577,186.304 262.577,186.804 256.5,186.5C 250.117,184.465 244.784,180.799 240.5,175.5C 236.507,169.852 234.507,163.519 234.5,156.5C 236.9,139.768 246.567,130.435 263.5,128.5 Z"/></g>
<g><path style="opacity:1" fill="#191919" d="M 366.5,127.5 C 367.627,128.122 368.627,128.955 369.5,130C 367.511,130.519 366.511,129.686 366.5,127.5 Z"/></g>
<g><path style="opacity:1" fill="#4e95ff" d="M 300.5,144.5 C 306.438,166.797 299.105,183.297 278.5,194C 270.24,196.537 261.907,197.037 253.5,195.5C 252.32,192.83 252.487,190.164 254,187.5C 254.671,186.748 255.504,186.414 256.5,186.5C 262.577,186.804 268.577,186.304 274.5,185C 289.784,177.267 295.451,165.1 291.5,148.5C 295.021,147.901 298.021,146.568 300.5,144.5 Z"/></g>
<g><path style="opacity:1" fill="#8d8d8d" d="M 338.5,152.5 C 339.404,153.209 339.737,154.209 339.5,155.5C 340.552,155.351 341.552,155.517 342.5,156C 341.167,157.333 341.167,158.667 342.5,160C 342.167,160.167 341.833,160.333 341.5,160.5C 340.376,155.279 339.542,155.279 339,160.5C 338.503,157.854 338.336,155.187 338.5,152.5 Z"/></g>
<g><path style="opacity:1" fill="#8e8e8e" d="M 374.5,152.5 C 375.404,153.209 375.737,154.209 375.5,155.5C 376.552,155.351 377.552,155.517 378.5,156C 377.167,157.333 377.167,158.667 378.5,160C 378.167,160.167 377.833,160.333 377.5,160.5C 376.376,155.279 375.542,155.279 375,160.5C 374.503,157.854 374.336,155.187 374.5,152.5 Z"/></g>
<g><path style="opacity:1" fill="#7d7d7d" d="M 398.5,152.5 C 399.473,154.948 399.806,157.615 399.5,160.5C 398.022,160.762 396.689,160.429 395.5,159.5C 396.616,159.598 397.616,159.098 398.5,158C 397.616,156.902 396.616,156.402 395.5,156.5C 396.325,155.614 397.325,155.281 398.5,155.5C 398.5,154.5 398.5,153.5 398.5,152.5 Z"/></g>
<g><path style="opacity:1" fill="#bfd9ff" d="M 234.5,156.5 C 234.507,163.519 236.507,169.852 240.5,175.5C 237.525,176.655 234.858,178.322 232.5,180.5C 228.223,175.349 225.89,169.349 225.5,162.5C 225.5,159.5 225.5,156.5 225.5,153.5C 228.5,153.5 231.5,153.5 234.5,153.5C 234.5,154.5 234.5,155.5 234.5,156.5 Z"/></g>
<g><path style="opacity:1" fill="#686868" d="M 329.5,155.5 C 330.239,155.369 330.906,155.536 331.5,156C 330.783,157.652 330.45,159.152 330.5,160.5C 329.548,158.955 329.215,157.288 329.5,155.5 Z"/></g>
<g><path style="opacity:1" fill="#919191" d="M 352.5,152.5 C 353.29,153.609 353.79,154.942 354,156.5C 355.726,155.424 357.559,155.257 359.5,156C 358.167,157.333 358.167,158.667 359.5,160C 359.167,160.167 358.833,160.333 358.5,160.5C 356.999,155.464 355.166,155.464 353,160.5C 352.503,157.854 352.336,155.187 352.5,152.5 Z"/></g>
<g><path style="opacity:1" fill="#8a8a8a" d="M 383.5,155.5 C 386.598,155.413 386.932,155.913 384.5,157C 385.973,157.71 386.64,158.876 386.5,160.5C 383.402,160.587 383.068,160.087 385.5,159C 383.061,158.467 382.395,157.3 383.5,155.5 Z"/></g>
<g><path style="opacity:1" fill="#838383" d="M 333.5,156.5 C 336.828,155.149 338.161,156.483 337.5,160.5C 333.107,160.543 332.774,160.043 336.5,159C 335.529,157.959 334.529,157.126 333.5,156.5 Z"/></g>
<g><path style="opacity:1" fill="#838383" d="M 347.5,156.5 C 350.828,155.149 352.161,156.483 351.5,160.5C 347.107,160.543 346.774,160.043 350.5,159C 349.529,157.959 348.529,157.126 347.5,156.5 Z"/></g>
<g><path style="opacity:1" fill="#838383" d="M 388.5,156.5 C 391.828,155.149 393.161,156.483 392.5,160.5C 388.107,160.543 387.774,160.043 391.5,159C 390.529,157.959 389.529,157.126 388.5,156.5 Z"/></g>
<g><path style="opacity:1" fill="#969dab" d="M 37.5,160.5 C 29.9889,156.669 26.3223,159.002 26.5,167.5C 24.3451,159.815 27.3451,156.649 35.5,158C 36.756,158.417 37.4226,159.25 37.5,160.5 Z"/></g>
<g><path style="opacity:1" fill="#f2f2f4" d="M 37.5,160.5 C 37.9294,169.775 34.2628,172.108 26.5,167.5C 26.3223,159.002 29.9889,156.669 37.5,160.5 Z"/></g>
<g><path style="opacity:1" fill="#616875" d="M 104.5,159.5 C 106.117,160.589 106.95,162.256 107,164.5C 110.476,161.814 110.976,162.147 108.5,165.5C 110.976,168.853 110.476,169.186 107,166.5C 106.692,167.308 106.192,167.975 105.5,168.5C 104.516,165.572 104.183,162.572 104.5,159.5 Z"/></g>
<g><path style="opacity:1" fill="#7b7b7b" d="M 361.5,155.5 C 362.835,160.535 364.001,160.535 365,155.5C 365.494,157.134 365.66,158.801 365.5,160.5C 364.167,160.5 362.833,160.5 361.5,160.5C 361.5,158.833 361.5,157.167 361.5,155.5 Z"/></g>
<g><path style="opacity:1" fill="#8a8a8a" d="M 367.5,155.5 C 372.03,156.02 372.363,157.186 368.5,159C 369.167,159.333 369.833,159.667 370.5,160C 366.707,160.487 365.707,158.987 367.5,155.5 Z"/></g>
<g><path style="opacity:1" fill="#475162" d="M 51.5,163.5 C 50.8365,165.042 50.1698,166.709 49.5,168.5C 48.1667,165.833 48.1667,163.167 49.5,160.5C 50.9185,161.005 51.5852,162.005 51.5,163.5 Z"/></g>
<g><path style="opacity:1" fill="#434d60" d="M 53.5,164.5 C 53.6282,162.91 54.2949,161.577 55.5,160.5C 56.6517,163.106 56.8184,165.773 56,168.5C 55.6667,166.833 55.3333,165.167 55,163.5C 54.6174,164.056 54.1174,164.389 53.5,164.5 Z"/></g>
<g><path style="opacity:1" fill="#465062" d="M 81.5,160.5 C 83.4672,160.261 85.3005,160.594 87,161.5C 87.3329,163.934 86.1662,164.934 83.5,164.5C 83.5,165.5 83.5,166.5 83.5,167.5C 84.552,167.351 85.552,167.517 86.5,168C 84.8659,168.494 83.1992,168.66 81.5,168.5C 81.5,165.833 81.5,163.167 81.5,160.5 Z"/></g>
<g><path style="opacity:1" fill="#f4f5f5" d="M 83.5,161.5 C 85.337,161.639 85.6704,162.306 84.5,163.5C 83.7025,163.043 83.3691,162.376 83.5,161.5 Z"/></g>
<g><path style="opacity:1" fill="#666d79" d="M 58.5,162.5 C 59.6935,162.97 60.3601,163.97 60.5,165.5C 60.1667,166.5 59.8333,167.5 59.5,168.5C 58.5344,166.604 58.2011,164.604 58.5,162.5 Z"/></g>
<g><path style="opacity:1" fill="#51596a" d="M 118.5,162.5 C 120.056,163.291 121.39,163.624 122.5,163.5C 121.248,165.001 120.248,166.668 119.5,168.5C 118.534,166.604 118.201,164.604 118.5,162.5 Z"/></g>
<g><path style="opacity:1" fill="#59616f" d="M 113.5,163.5 C 115.093,162.133 116.426,162.466 117.5,164.5C 111.619,165.159 111.286,166.326 116.5,168C 112.333,169.167 110.833,167.667 112,163.5C 113.049,164.517 114.216,164.684 115.5,164C 114.906,163.536 114.239,163.369 113.5,163.5 Z"/></g>
<g><path style="opacity:1" fill="#646a77" d="M 62.5,162.5 C 63.6935,162.97 64.3601,163.97 64.5,165.5C 64.1667,166.5 63.8333,167.5 63.5,168.5C 62.5344,166.604 62.2011,164.604 62.5,162.5 Z"/></g>
<g><path style="opacity:1" fill="#646a77" d="M 96.5,162.5 C 97.6935,162.97 98.3601,163.97 98.5,165.5C 98.1667,166.5 97.8333,167.5 97.5,168.5C 96.5344,166.604 96.2011,164.604 96.5,162.5 Z"/></g>
<g><path style="opacity:1" fill="#555d6d" d="M 51.5,163.5 C 52.1667,163.833 52.8333,164.167 53.5,164.5C 53.6309,165.376 53.2975,166.043 52.5,166.5C 51.6143,165.675 51.281,164.675 51.5,163.5 Z"/></g>
<g><path style="opacity:1" fill="#4f5867" d="M 65.5,163.5 C 66.1894,162.226 67.0228,162.226 68,163.5C 68.7975,165.259 68.6309,166.926 67.5,168.5C 66.8302,166.709 66.1635,165.042 65.5,163.5 Z"/></g>
<g><path style="opacity:1" fill="#4f5867" d="M 99.5,163.5 C 100.189,162.226 101.023,162.226 102,163.5C 102.798,165.259 102.631,166.926 101.5,168.5C 100.83,166.709 100.163,165.042 99.5,163.5 Z"/></g>
<g><path style="opacity:1" fill="#8d95a5" d="M 30.5,161.5 C 32.0927,160.133 33.4261,160.466 34.5,162.5C 33.3845,163.598 33.3845,164.765 34.5,166C 33.045,168.981 31.3784,169.148 29.5,166.5C 30.1667,166.167 30.8333,165.833 31.5,165.5C 31.24,164.095 30.9066,162.762 30.5,161.5 Z"/></g>
<g><path style="opacity:1" fill="#5f6775" d="M 70.5,163.5 C 74.9995,161.837 76.4995,163.503 75,168.5C 74.7508,167.376 74.2508,166.376 73.5,165.5C 72.2888,166.274 72.2888,167.107 73.5,168C 72.552,168.483 71.552,168.649 70.5,168.5C 70.1367,166.089 71.1367,164.589 73.5,164C 72.552,163.517 71.552,163.351 70.5,163.5 Z"/></g>
<g><path style="opacity:1" fill="#5f6775" d="M 89.5,163.5 C 93.9995,161.837 95.4995,163.503 94,168.5C 93.7508,167.376 93.2508,166.376 92.5,165.5C 91.2888,166.274 91.2888,167.107 92.5,168C 91.552,168.483 90.552,168.649 89.5,168.5C 89.1367,166.089 90.1367,164.589 92.5,164C 91.552,163.517 90.552,163.351 89.5,163.5 Z"/></g>
<g><path style="opacity:1" fill="#a3a9b5" d="M 37.5,160.5 C 40.1659,163.754 39.8326,166.921 36.5,170C 34.3046,171.373 31.9712,171.706 29.5,171C 27.5743,170.578 26.5743,169.411 26.5,167.5C 34.2628,172.108 37.9294,169.775 37.5,160.5 Z"/></g>
<g><path style="opacity:1" fill="#0c0c0c" d="M 414.5,173.5 C 415.5,173.5 416.5,173.5 417.5,173.5C 417.156,180.815 418.822,180.981 422.5,174C 423.833,173.333 425.167,173.333 426.5,174C 424.443,175.719 422.776,177.719 421.5,180C 423.152,182.323 424.819,184.656 426.5,187C 423.019,186.755 420.352,184.922 418.5,181.5C 417.534,183.396 417.201,185.396 417.5,187.5C 416.5,187.5 415.5,187.5 414.5,187.5C 414.5,182.833 414.5,178.167 414.5,173.5 Z"/></g>
<g><path style="opacity:1" fill="#88b8ff" d="M 240.5,175.5 C 244.784,180.799 250.117,184.465 256.5,186.5C 255.504,186.414 254.671,186.748 254,187.5C 252.487,190.164 252.32,192.83 253.5,195.5C 244.519,193.173 237.519,188.173 232.5,180.5C 234.858,178.322 237.525,176.655 240.5,175.5 Z"/></g>
<g><path style="opacity:1" fill="#202737" d="M 364.5,173.5 C 372.156,173.315 374.656,176.982 372,184.5C 370.334,187.379 367.834,188.212 364.5,187C 362.74,186.035 362.406,184.868 363.5,183.5C 366.384,186.486 368.717,186.153 370.5,182.5C 368.761,182.406 366.761,182.239 364.5,182C 361.899,179.17 361.899,176.337 364.5,173.5 Z"/></g>
<g><path style="opacity:1" fill="#e8e9eb" d="M 365.5,175.5 C 366.833,175.5 368.167,175.5 369.5,175.5C 369.5,177.167 369.5,178.833 369.5,180.5C 365.065,181.078 363.732,179.411 365.5,175.5 Z"/></g>
<g><path style="opacity:1" fill="#18202f" d="M 393.5,173.5 C 394.5,173.5 395.5,173.5 396.5,173.5C 396.827,178.214 396.493,182.88 395.5,187.5C 394.833,183.833 394.167,180.167 393.5,176.5C 392.604,177.506 391.938,177.506 391.5,176.5C 392.193,175.482 392.859,174.482 393.5,173.5 Z"/></g>
<g><path style="opacity:1" fill="#000000" d="M 431.5,176.5 C 431.5,180.167 431.5,183.833 431.5,187.5C 430.213,186.129 429.547,184.295 429.5,182C 429.547,179.705 430.213,177.871 431.5,176.5 Z"/></g>
<g><path style="opacity:1" fill="#262d3c" d="M 352.5,173.5 C 355.596,172.907 357.929,173.907 359.5,176.5C 359.167,176.833 358.833,177.167 358.5,177.5C 354.922,174.408 353.089,175.075 353,179.5C 356.772,177.801 359.272,178.968 360.5,183C 359.033,187.295 356.033,188.628 351.5,187C 348.679,182.25 349.013,177.75 352.5,173.5 Z"/></g>
<g><path style="opacity:1" fill="#3d3d3d" d="M 431.5,176.5 C 433.205,177.088 434.872,177.421 436.5,177.5C 435.311,178.429 433.978,178.762 432.5,178.5C 432.81,181.713 432.477,184.713 431.5,187.5C 431.5,183.833 431.5,180.167 431.5,176.5 Z"/></g>
<g><path style="opacity:1" fill="#1d2534" d="M 334.5,173.5 C 340,172.831 342.167,175.165 341,180.5C 339.5,182 338,183.5 336.5,185C 338.577,185.192 340.577,185.692 342.5,186.5C 339.167,187.833 335.833,187.833 332.5,186.5C 335.036,183.801 337.369,180.968 339.5,178C 337.927,174.876 335.927,174.71 333.5,177.5C 333.167,177.167 332.833,176.833 332.5,176.5C 333.193,175.482 333.859,174.482 334.5,173.5 Z"/></g>
<g><path style="opacity:1" fill="#f7f7f7" d="M 353.5,180.5 C 357.161,180.35 358.161,181.85 356.5,185C 352.707,185.487 351.707,183.987 353.5,180.5 Z"/></g>
<g><path style="opacity:1" fill="#232a39" d="M 377.5,173.5 C 383.209,172.867 385.209,175.2 383.5,180.5C 386.08,182.713 386.08,184.88 383.5,187C 380.331,187.978 377.497,187.478 375,185.5C 374.37,183.097 375.203,181.263 377.5,180C 374.939,177.844 374.939,175.677 377.5,173.5 Z"/></g>
<g><path style="opacity:1" fill="#f0f1f2" d="M 378.5,181.5 C 381.5,181.167 382.833,182.5 382.5,185.5C 380.833,185.5 379.167,185.5 377.5,185.5C 377.433,184.041 377.766,182.708 378.5,181.5 Z"/></g>
<g><path style="opacity:1" fill="#dfe1e3" d="M 378.5,175.5 C 381.166,175.066 382.333,176.066 382,178.5C 378.403,180.066 377.237,179.066 378.5,175.5 Z"/></g>
<g><path style="opacity:1" fill="#1c2332" d="M 402.5,173.5 C 408.325,172.506 410.492,174.839 409,180.5C 407.5,182 406,183.5 404.5,185C 406.577,185.192 408.577,185.692 410.5,186.5C 407.167,187.833 403.833,187.833 400.5,186.5C 402.483,184.016 404.65,181.683 407,179.5C 407.49,178.207 407.657,176.873 407.5,175.5C 405.173,175.247 403.173,175.914 401.5,177.5C 401.167,177.167 400.833,176.833 400.5,176.5C 401.193,175.482 401.859,174.482 402.5,173.5 Z"/></g>
<g><path style="opacity:1" fill="#343a48" d="M 387.5,184.5 C 391.31,185.754 391.31,186.754 387.5,187.5C 387.5,186.5 387.5,185.5 387.5,184.5 Z"/></g>
<g><path style="opacity:1" fill="#3d4351" d="M 345.5,185.5 C 347.951,187.21 347.951,189.21 345.5,191.5C 344.769,189.599 344.769,187.599 345.5,185.5 Z"/></g>
<g><path style="opacity:1" fill="#ecedf0" d="M 26.5,197.5 C 29.1667,197.5 31.8333,197.5 34.5,197.5C 34.8168,201.702 34.4834,205.702 33.5,209.5C 31.2797,209.537 28.9464,209.203 26.5,208.5C 26.5,204.833 26.5,201.167 26.5,197.5 Z"/></g>
<g><path style="opacity:1" fill="#878f9f" d="M 26.5,197.5 C 30.3507,196.191 34.3507,196.191 38.5,197.5C 38.0623,198.506 37.3957,198.506 36.5,197.5C 35.1068,199.674 35.4402,201.507 37.5,203C 36.0041,205.201 35.0041,207.701 34.5,210.5C 33.8933,210.376 33.56,210.043 33.5,209.5C 34.4834,205.702 34.8168,201.702 34.5,197.5C 31.8333,197.5 29.1667,197.5 26.5,197.5 Z"/></g>
<g><path style="opacity:1" fill="#616875" d="M 170.5,198.5 C 172.117,199.589 172.95,201.256 173,203.5C 176.476,200.814 176.976,201.147 174.5,204.5C 176.976,207.853 176.476,208.186 173,205.5C 172.692,206.308 172.192,206.975 171.5,207.5C 170.516,204.572 170.183,201.572 170.5,198.5 Z"/></g>
<g><path style="opacity:1" fill="#555e6e" d="M 48.5,200.5 C 50.6282,199.371 52.9615,199.204 55.5,200C 54.0041,202.201 53.0041,204.701 52.5,207.5C 51.5258,205.257 51.1924,202.924 51.5,200.5C 50.5,200.5 49.5,200.5 48.5,200.5 Z"/></g>
<g><path style="opacity:1" fill="#51596a" d="M 56.5,201.5 C 58.0562,202.291 59.3895,202.624 60.5,202.5C 59.2485,204.001 58.2485,205.668 57.5,207.5C 56.5344,205.604 56.2011,203.604 56.5,201.5 Z"/></g>
<g><path style="opacity:1" fill="#5a6270" d="M 90.5,198.5 C 92.1171,199.589 92.9504,201.256 93,203.5C 95.7856,200.098 98.619,199.598 101.5,202C 98.8333,203.667 98.8333,205.333 101.5,207C 100.5,207.667 99.5,207.667 98.5,207C 97.9103,205.491 97.2436,203.991 96.5,202.5C 93.9211,203.888 93.9211,205.388 96.5,207C 95.0039,207.507 93.8373,207.007 93,205.5C 92.6924,206.308 92.1924,206.975 91.5,207.5C 90.5159,204.572 90.1826,201.572 90.5,198.5 Z"/></g>
<g><path style="opacity:1" fill="#666d79" d="M 102.5,201.5 C 103.693,201.97 104.36,202.97 104.5,204.5C 104.167,205.5 103.833,206.5 103.5,207.5C 102.534,205.604 102.201,203.604 102.5,201.5 Z"/></g>
<g><path style="opacity:1" fill="#666d79" d="M 137.5,201.5 C 138.693,201.97 139.36,202.97 139.5,204.5C 139.167,205.5 138.833,206.5 138.5,207.5C 137.534,205.604 137.201,203.604 137.5,201.5 Z"/></g>
<g><path style="opacity:1" fill="#51596a" d="M 161.5,201.5 C 163.056,202.291 164.39,202.624 165.5,202.5C 164.248,204.001 163.248,205.668 162.5,207.5C 161.534,205.604 161.201,203.604 161.5,201.5 Z"/></g>
<g><path style="opacity:1" fill="#666d79" d="M 166.5,201.5 C 167.693,201.97 168.36,202.97 168.5,204.5C 168.167,205.5 167.833,206.5 167.5,207.5C 166.534,205.604 166.201,203.604 166.5,201.5 Z"/></g>
<g><path style="opacity:1" fill="#59616f" d="M 148.5,199.5 C 149.931,200.082 151.264,200.915 152.5,202C 149.833,203.667 149.833,205.333 152.5,207C 151.216,207.684 150.049,207.517 149,206.5C 147.94,204.05 147.773,201.717 148.5,199.5 Z"/></g>
<g><path style="opacity:1" fill="#646a77" d="M 68.5,201.5 C 69.6935,201.97 70.3601,202.97 70.5,204.5C 70.1667,205.5 69.8333,206.5 69.5,207.5C 68.5344,205.604 68.2011,203.604 68.5,201.5 Z"/></g>
<g><path style="opacity:1" fill="#5c6372" d="M 110.5,202.5 C 106.5,203.833 106.5,205.167 110.5,206.5C 108.316,207.983 106.983,207.316 106.5,204.5C 106.983,201.684 108.316,201.017 110.5,202.5 Z"/></g>
<g><path style="opacity:1" fill="#eaebeb" d="M 110.5,202.5 C 110.5,203.833 110.5,205.167 110.5,206.5C 106.5,205.167 106.5,203.833 110.5,202.5 Z"/></g>
<g><path style="opacity:1" fill="#4a5364" d="M 110.5,202.5 C 113.167,203.833 113.167,205.167 110.5,206.5C 110.5,205.167 110.5,203.833 110.5,202.5 Z"/></g>
<g><path style="opacity:1" fill="#646a77" d="M 114.5,201.5 C 115.693,201.97 116.36,202.97 116.5,204.5C 116.167,205.5 115.833,206.5 115.5,207.5C 114.534,205.604 114.201,203.604 114.5,201.5 Z"/></g>
<g><path style="opacity:1" fill="#646b77" d="M 129.5,198.5 C 130.765,199.514 131.431,201.014 131.5,203C 131.167,204.5 130.833,206 130.5,207.5C 129.516,204.572 129.183,201.572 129.5,198.5 Z"/></g>
<g><path style="opacity:1" fill="#5c6372" d="M 157.5,202.5 C 153.5,203.833 153.5,205.167 157.5,206.5C 155.316,207.983 153.983,207.316 153.5,204.5C 153.983,201.684 155.316,201.017 157.5,202.5 Z"/></g>
<g><path style="opacity:1" fill="#eaebeb" d="M 157.5,202.5 C 157.5,203.833 157.5,205.167 157.5,206.5C 153.5,205.167 153.5,203.833 157.5,202.5 Z"/></g>
<g><path style="opacity:1" fill="#4a5364" d="M 157.5,202.5 C 160.167,203.833 160.167,205.167 157.5,206.5C 157.5,205.167 157.5,203.833 157.5,202.5 Z"/></g>
<g><path style="opacity:1" fill="#4f5867" d="M 71.5,202.5 C 72.1894,201.226 73.0228,201.226 74,202.5C 74.7975,204.259 74.6309,205.926 73.5,207.5C 72.8302,205.709 72.1635,204.042 71.5,202.5 Z"/></g>
<g><path style="opacity:1" fill="#4f5867" d="M 117.5,202.5 C 118.189,201.226 119.023,201.226 120,202.5C 120.798,204.259 120.631,205.926 119.5,207.5C 118.83,205.709 118.163,204.042 117.5,202.5 Z"/></g>
<g><path style="opacity:1" fill="#4f5867" d="M 132.5,202.5 C 133.189,201.226 134.023,201.226 135,202.5C 135.798,204.259 135.631,205.926 134.5,207.5C 133.83,205.709 133.163,204.042 132.5,202.5 Z"/></g>
<g><path style="opacity:1" fill="#5f6775" d="M 61.5,202.5 C 65.9995,200.837 67.4995,202.503 66,207.5C 65.7508,206.376 65.2508,205.376 64.5,204.5C 63.2888,205.274 63.2888,206.107 64.5,207C 63.552,207.483 62.552,207.649 61.5,207.5C 61.1367,205.089 62.1367,203.589 64.5,203C 63.552,202.517 62.552,202.351 61.5,202.5 Z"/></g>
<g><path style="opacity:1" fill="#636a77" d="M 77.5,201.5 C 81.8926,201.457 82.2259,201.957 78.5,203C 82.5456,206.246 81.879,207.58 76.5,207C 77.5,206.667 78.5,206.333 79.5,206C 76.715,205.274 76.0484,203.774 77.5,201.5 Z"/></g>
<g><path style="opacity:1" fill="#5f6775" d="M 83.5,202.5 C 87.9995,200.837 89.4995,202.503 88,207.5C 87.7508,206.376 87.2508,205.376 86.5,204.5C 85.2888,205.274 85.2888,206.107 86.5,207C 85.552,207.483 84.552,207.649 83.5,207.5C 83.1367,205.089 84.1367,203.589 86.5,203C 85.552,202.517 84.552,202.351 83.5,202.5 Z"/></g>
<g><path style="opacity:1" fill="#636a77" d="M 123.5,201.5 C 127.893,201.457 128.226,201.957 124.5,203C 128.546,206.246 127.879,207.58 122.5,207C 123.5,206.667 124.5,206.333 125.5,206C 122.715,205.274 122.048,203.774 123.5,201.5 Z"/></g>
<g><path style="opacity:1" fill="#636a77" d="M 142.5,201.5 C 146.893,201.457 147.226,201.957 143.5,203C 147.546,206.246 146.879,207.58 141.5,207C 142.5,206.667 143.5,206.333 144.5,206C 141.715,205.274 141.048,203.774 142.5,201.5 Z"/></g>
<g><path style="opacity:1" fill="#9097a7" d="M 26.5,197.5 C 26.5,201.167 26.5,204.833 26.5,208.5C 28.9464,209.203 31.2797,209.537 33.5,209.5C 31.0715,210.39 28.7382,210.723 26.5,210.5C 25.1889,206.016 25.1889,201.683 26.5,197.5 Z"/></g>
<g><path style="opacity:1" fill="#ededef" d="M 629.5,211.5 C 629.5,212.167 629.5,212.833 629.5,213.5C 490.833,213.667 352.166,213.5 213.5,213C 211.667,211.833 210.167,210.333 209,208.5C 208.333,175.167 208.333,141.833 209,108.5C 210.172,105.297 212.339,103.797 215.5,104C 213,105.167 211.167,107 210,109.5C 209.333,141.833 209.333,174.167 210,206.5C 210.785,208.286 211.951,209.786 213.5,211C 352.166,211.5 490.833,211.667 629.5,211.5 Z"/></g>
<g><path style="opacity:1" fill="#666d79" d="M 75.5,237.5 C 76.7647,238.514 77.4313,240.014 77.5,242C 77.1667,243.5 76.8333,245 76.5,246.5C 75.5159,243.572 75.1826,240.572 75.5,237.5 Z"/></g>
<g><path style="opacity:1" fill="#9a9fa8" d="M 115.5,237.5 C 116.978,237.238 118.311,237.571 119.5,238.5C 118.833,238.833 118.167,239.167 117.5,239.5C 116.287,239.253 115.62,238.586 115.5,237.5 Z"/></g>
<g><path style="opacity:1" fill="#9a9fa8" d="M 147.5,237.5 C 148.978,237.238 150.311,237.571 151.5,238.5C 150.833,238.833 150.167,239.167 149.5,239.5C 148.287,239.253 147.62,238.586 147.5,237.5 Z"/></g>
<g><path style="opacity:1" fill="#979dac" d="M 35.5,236.5 C 36.5676,235.566 37.901,235.232 39.5,235.5C 39.6495,236.552 39.4828,237.552 39,238.5C 38.6667,238.167 38.3333,237.833 38,237.5C 37.3109,238.357 36.4776,239.023 35.5,239.5C 35.542,238.479 35.542,237.479 35.5,236.5 Z"/></g>
<g><path style="opacity:1" fill="#465062" d="M 48.5,238.5 C 50.4672,238.261 52.3005,238.594 54,239.5C 54.3329,241.934 53.1662,242.934 50.5,242.5C 50.5,243.5 50.5,244.5 50.5,245.5C 51.552,245.351 52.552,245.517 53.5,246C 51.8659,246.494 50.1992,246.66 48.5,246.5C 48.5,243.833 48.5,241.167 48.5,238.5 Z"/></g>
<g><path style="opacity:1" fill="#0d0d0d" d="M 343.5,238.5 C 345.22,240.658 346.053,243.325 346,246.5C 346.956,245.421 347.789,244.255 348.5,243C 349.5,242.333 350.5,242.333 351.5,243C 347.745,245.549 347.745,248.216 351.5,251C 350.365,251.749 349.365,251.583 348.5,250.5C 346.807,246.678 345.473,247.011 344.5,251.5C 343.508,247.217 343.174,242.884 343.5,238.5 Z"/></g>
<g><path style="opacity:1" fill="#000000" d="M 361.5,238.5 C 363.337,238.639 363.67,239.306 362.5,240.5C 361.702,240.043 361.369,239.376 361.5,238.5 Z"/></g>
<g><path style="opacity:1" fill="#f4f5f5" d="M 50.5,239.5 C 52.337,239.639 52.6704,240.306 51.5,241.5C 50.7025,241.043 50.3691,240.376 50.5,239.5 Z"/></g>
<g><path style="opacity:1" fill="#686868" d="M 211.5,240.5 C 213.693,239.203 216.027,239.203 218.5,240.5C 216.557,240.465 214.557,240.798 212.5,241.5C 212.5,240.833 212.167,240.5 211.5,240.5 Z"/></g>
<g><path style="opacity:1" fill="#666d79" d="M 87.5,240.5 C 88.6935,240.97 89.3601,241.97 89.5,243.5C 89.1667,244.5 88.8333,245.5 88.5,246.5C 87.5344,244.604 87.2011,242.604 87.5,240.5 Z"/></g>
<g><path style="opacity:1" fill="#4e5868" d="M 142.5,237.5 C 145.797,237.329 146.131,237.995 143.5,239.5C 143.709,240.086 144.043,240.586 144.5,241C 143.237,247.725 142.07,247.891 141,241.5C 139.354,242.779 138.187,244.445 137.5,246.5C 136.167,244.5 136.167,242.5 137.5,240.5C 140.011,241.381 141.678,240.381 142.5,237.5 Z"/></g>
<g><path style="opacity:1" fill="#51596a" d="M 154.5,240.5 C 156.056,241.291 157.39,241.624 158.5,241.5C 157.248,243.001 156.248,244.668 155.5,246.5C 154.534,244.604 154.201,242.604 154.5,240.5 Z"/></g>
<g><path style="opacity:1" fill="#666d79" d="M 159.5,240.5 C 160.693,240.97 161.36,241.97 161.5,243.5C 161.167,244.5 160.833,245.5 160.5,246.5C 159.534,244.604 159.201,242.604 159.5,240.5 Z"/></g>
<g><path style="opacity:1" fill="#212121" d="M 211.5,240.5 C 212.167,240.5 212.5,240.833 212.5,241.5C 212.5,242.5 212.5,243.5 212.5,244.5C 218.106,244.393 219.44,246.56 216.5,251C 214.098,251.814 211.765,251.647 209.5,250.5C 211.343,250.245 213.343,250.078 215.5,250C 215.957,249.586 216.291,249.086 216.5,248.5C 214.573,246.898 212.406,245.565 210,244.5C 209.227,242.648 209.727,241.314 211.5,240.5 Z"/></g>
<g><path style="opacity:1" fill="#101010" d="M 262.5,243.5 C 262.5,243.167 262.5,242.833 262.5,242.5C 263.151,241.909 263.818,241.243 264.5,240.5C 265.59,241.727 266.924,242.56 268.5,243C 267.552,243.483 266.552,243.649 265.5,243.5C 265.5,245.833 265.5,248.167 265.5,250.5C 266.552,250.351 267.552,250.517 268.5,251C 266.888,251.72 265.388,251.554 264,250.5C 263.814,247.964 263.314,245.631 262.5,243.5 Z"/></g>
<g><path style="opacity:1" fill="#101010" d="M 286.5,240.5 C 288.084,241.382 289.751,242.215 291.5,243C 290.552,243.483 289.552,243.649 288.5,243.5C 288.5,245.833 288.5,248.167 288.5,250.5C 289.552,250.351 290.552,250.517 291.5,251C 289.888,251.72 288.388,251.554 287,250.5C 286.774,247.905 286.274,245.405 285.5,243C 286.252,242.329 286.586,241.496 286.5,240.5 Z"/></g>
<g><path style="opacity:1" fill="#101010" d="M 354.5,240.5 C 356.084,241.382 357.751,242.215 359.5,243C 358.552,243.483 357.552,243.649 356.5,243.5C 356.5,245.833 356.5,248.167 356.5,250.5C 357.552,250.351 358.552,250.517 359.5,251C 357.888,251.72 356.388,251.554 355,250.5C 354.774,247.905 354.274,245.405 353.5,243C 354.252,242.329 354.586,241.496 354.5,240.5 Z"/></g>
<g><path style="opacity:1" fill="#59616f" d="M 62.5,241.5 C 61.4107,243.117 59.744,243.95 57.5,244C 58.6226,245.044 59.9559,245.71 61.5,246C 57.3333,247.167 55.8333,245.667 57,241.5C 58.5171,241.35 60.3504,241.35 62.5,241.5 Z"/></g>
<g><path style="opacity:1" fill="#59616f" d="M 62.5,241.5 C 63.6461,237.759 65.3128,237.592 67.5,241C 64.8333,242.667 64.8333,244.333 67.5,246C 66.5,246.667 65.5,246.667 64.5,246C 63.9011,244.378 63.2344,242.878 62.5,241.5 Z"/></g>
<g><path style="opacity:1" fill="#656c79" d="M 100.5,240.5 C 102.167,240.5 103.833,240.5 105.5,240.5C 105.37,248.965 104.37,249.299 102.5,241.5C 99.9211,242.888 99.9211,244.388 102.5,246C 101.551,246.617 100.718,246.451 100,245.5C 99.3603,243.735 99.5269,242.068 100.5,240.5 Z"/></g>
<g><path style="opacity:1" fill="#59616f" d="M 131.5,241.5 C 133.093,240.133 134.426,240.466 135.5,242.5C 129.619,243.159 129.286,244.326 134.5,246C 130.333,247.167 128.833,245.667 130,241.5C 131.049,242.517 132.216,242.684 133.5,242C 132.906,241.536 132.239,241.369 131.5,241.5 Z"/></g>
<g><path style="opacity:1" fill="#656c79" d="M 172.5,240.5 C 174.167,240.5 175.833,240.5 177.5,240.5C 177.37,248.965 176.37,249.299 174.5,241.5C 171.921,242.888 171.921,244.388 174.5,246C 173.551,246.617 172.718,246.451 172,245.5C 171.36,243.735 171.527,242.068 172.5,240.5 Z"/></g>
<g><path style="opacity:1" fill="#9198a7" d="M 26.5,245.5 C 25.3709,243.372 25.2042,241.039 26,238.5C 29.8374,235.915 30.1708,236.249 27,239.5C 26.5045,241.473 26.3379,243.473 26.5,245.5 Z"/></g>
<g><path style="opacity:1" fill="#646a77" d="M 79.5,240.5 C 80.6935,240.97 81.3601,241.97 81.5,243.5C 81.1667,244.5 80.8333,245.5 80.5,246.5C 79.5344,244.604 79.2011,242.604 79.5,240.5 Z"/></g>
<g><path style="opacity:1" fill="#646a77" d="M 91.5,240.5 C 92.6935,240.97 93.3601,241.97 93.5,243.5C 93.1667,244.5 92.8333,245.5 92.5,246.5C 91.5344,244.604 91.2011,242.604 91.5,240.5 Z"/></g>
<g><path style="opacity:1" fill="#5c6372" d="M 118.5,241.5 C 114.5,242.833 114.5,244.167 118.5,245.5C 116.316,246.983 114.983,246.316 114.5,243.5C 114.983,240.684 116.316,240.017 118.5,241.5 Z"/></g>
<g><path style="opacity:1" fill="#eaebeb" d="M 118.5,241.5 C 118.5,242.833 118.5,244.167 118.5,245.5C 114.5,244.167 114.5,242.833 118.5,241.5 Z"/></g>
<g><path style="opacity:1" fill="#4a5364" d="M 118.5,241.5 C 121.167,242.833 121.167,244.167 118.5,245.5C 118.5,244.167 118.5,242.833 118.5,241.5 Z"/></g>
<g><path style="opacity:1" fill="#5c6372" d="M 150.5,241.5 C 146.5,242.833 146.5,244.167 150.5,245.5C 148.316,246.983 146.983,246.316 146.5,243.5C 146.983,240.684 148.316,240.017 150.5,241.5 Z"/></g>
<g><path style="opacity:1" fill="#eaebeb" d="M 150.5,241.5 C 150.5,242.833 150.5,244.167 150.5,245.5C 146.5,244.167 146.5,242.833 150.5,241.5 Z"/></g>
<g><path style="opacity:1" fill="#4a5364" d="M 150.5,241.5 C 153.167,242.833 153.167,244.167 150.5,245.5C 150.5,244.167 150.5,242.833 150.5,241.5 Z"/></g>
<g><path style="opacity:1" fill="#646a77" d="M 163.5,240.5 C 164.693,240.97 165.36,241.97 165.5,243.5C 165.167,244.5 164.833,245.5 164.5,246.5C 163.534,244.604 163.201,242.604 163.5,240.5 Z"/></g>
<g><path style="opacity:1" fill="#000000" d="M 232.5,242.5 C 233.765,243.514 234.431,245.014 234.5,247C 234.167,248.5 233.833,250 233.5,251.5C 232.516,248.572 232.183,245.572 232.5,242.5 Z"/></g>
<g><path style="opacity:1" fill="#040404" d="M 293.5,242.5 C 295.179,242.892 296.846,243.392 298.5,244C 297.552,244.483 296.552,244.649 295.5,244.5C 295.808,246.924 295.474,249.257 294.5,251.5C 293.516,248.572 293.183,245.572 293.5,242.5 Z"/></g>
<g><path style="opacity:1" fill="#000000" d="M 312.5,242.5 C 313.765,243.514 314.431,245.014 314.5,247C 314.167,248.5 313.833,250 313.5,251.5C 312.516,248.572 312.183,245.572 312.5,242.5 Z"/></g>
<g><path style="opacity:1" fill="#000000" d="M 361.5,242.5 C 362.765,243.514 363.431,245.014 363.5,247C 363.167,248.5 362.833,250 362.5,251.5C 361.516,248.572 361.183,245.572 361.5,242.5 Z"/></g>
<g><path style="opacity:1" fill="#000000" d="M 377.5,242.5 C 378.765,243.514 379.431,245.014 379.5,247C 379.167,248.5 378.833,250 378.5,251.5C 377.516,248.572 377.183,245.572 377.5,242.5 Z"/></g>
<g><path style="opacity:1" fill="#040404" d="M 399.5,242.5 C 401.179,242.892 402.846,243.392 404.5,244C 403.552,244.483 402.552,244.649 401.5,244.5C 401.808,246.924 401.474,249.257 400.5,251.5C 399.516,248.572 399.183,245.572 399.5,242.5 Z"/></g>
<g><path style="opacity:1" fill="#8c93a3" d="M 30.5,239.5 C 32.1033,239.312 33.4366,239.812 34.5,241C 34.3842,242.268 34.0509,243.602 33.5,245C 32.365,245.749 31.365,245.583 30.5,244.5C 31.0522,242.997 31.0522,241.331 30.5,239.5 Z"/></g>
<g><path style="opacity:1" fill="#4f5867" d="M 82.5,241.5 C 83.1894,240.226 84.0228,240.226 85,241.5C 85.7975,243.259 85.6309,244.926 84.5,246.5C 83.8302,244.709 83.1635,243.042 82.5,241.5 Z"/></g>
<g><path style="opacity:1" fill="#4f5867" d="M 94.5,241.5 C 95.1894,240.226 96.0228,240.226 97,241.5C 97.7975,243.259 97.6309,244.926 96.5,246.5C 95.8302,244.709 95.1635,243.042 94.5,241.5 Z"/></g>
<g><path style="opacity:1" fill="#535c6c" d="M 122.5,240.5 C 123.966,241.347 124.8,242.68 125,244.5C 125.667,243.167 126.333,241.833 127,240.5C 127.18,242.488 127.014,244.488 126.5,246.5C 125.5,246.5 124.5,246.5 123.5,246.5C 123.167,244.5 122.833,242.5 122.5,240.5 Z"/></g>
<g><path style="opacity:1" fill="#4f5867" d="M 166.5,241.5 C 167.189,240.226 168.023,240.226 169,241.5C 169.798,243.259 169.631,244.926 168.5,246.5C 167.83,244.709 167.163,243.042 166.5,241.5 Z"/></g>
<g><path style="opacity:1" fill="#292929" d="M 226.5,243.5 C 227.995,243.415 228.995,244.081 229.5,245.5C 227.167,246.167 224.833,246.833 222.5,247.5C 224.153,250.439 226.486,251.272 229.5,250C 223.226,253.226 220.393,251.393 221,244.5C 222.678,242.447 224.511,242.113 226.5,243.5 Z"/></g>
<g><path style="opacity:1" fill="#e8e8e8" d="M 226.5,243.5 C 225.796,245.344 224.463,245.844 222.5,245C 223.563,243.812 224.897,243.312 226.5,243.5 Z"/></g>
<g><path style="opacity:1" fill="#000000" d="M 239.5,243.5 C 241.177,246.615 240.844,249.282 238.5,251.5C 238.194,248.615 238.527,245.948 239.5,243.5 Z"/></g>
<g><path style="opacity:1" fill="#191919" d="M 243.5,243.5 C 245.56,242.189 247.726,242.189 250,243.5C 250.818,246.227 250.652,248.894 249.5,251.5C 248.77,249.659 248.103,247.825 247.5,246C 247.833,245.667 248.167,245.333 248.5,245C 247.095,243.731 245.429,243.231 243.5,243.5 Z"/></g>
<g><path style="opacity:1" fill="#121212" d="M 255.5,243.5 C 255.328,244.492 255.662,245.158 256.5,245.5C 258.386,246.065 260.053,247.065 261.5,248.5C 260.995,249.919 259.995,250.585 258.5,250.5C 258.5,249.5 258.5,248.5 258.5,247.5C 256.856,247.714 255.356,247.38 254,246.5C 253.415,245.002 253.915,244.002 255.5,243.5 Z"/></g>
<g><path style="opacity:1" fill="#909090" d="M 262.5,242.5 C 262.5,242.833 262.5,243.167 262.5,243.5C 261.063,244.722 259.563,244.722 258,243.5C 256.97,243.836 256.47,244.503 256.5,245.5C 255.662,245.158 255.328,244.492 255.5,243.5C 257.607,242.532 259.941,242.198 262.5,242.5 Z"/></g>
<g><path style="opacity:1" fill="#292929" d="M 275.5,243.5 C 276.995,243.415 277.995,244.081 278.5,245.5C 276.167,246.167 273.833,246.833 271.5,247.5C 273.153,250.439 275.486,251.272 278.5,250C 272.226,253.226 269.393,251.393 270,244.5C 271.678,242.447 273.511,242.113 275.5,243.5 Z"/></g>
<g><path style="opacity:1" fill="#e7e7e7" d="M 275.5,243.5 C 274.796,245.344 273.463,245.844 271.5,245C 272.563,243.812 273.897,243.312 275.5,243.5 Z"/></g>
<g><path style="opacity:1" fill="#191919" d="M 301.5,243.5 C 303.56,242.189 305.726,242.189 308,243.5C 308.818,246.227 308.652,248.894 307.5,251.5C 306.77,249.659 306.103,247.825 305.5,246C 305.833,245.667 306.167,245.333 306.5,245C 305.095,243.731 303.429,243.231 301.5,243.5 Z"/></g>
<g><path style="opacity:1" fill="#000000" d="M 319.5,243.5 C 321.177,246.615 320.844,249.282 318.5,251.5C 318.194,248.615 318.527,245.948 319.5,243.5 Z"/></g>
<g><path style="opacity:1" fill="#1f1f1f" d="M 327.5,250.5 C 327.5,249.5 327.5,248.5 327.5,247.5C 322.756,247.962 321.756,246.462 324.5,243C 325.833,242.333 327.167,242.333 328.5,243C 327.552,243.483 326.552,243.649 325.5,243.5C 325.5,244.5 325.5,245.5 325.5,246.5C 327.144,246.286 328.644,246.62 330,247.5C 330.519,249.489 329.686,250.489 327.5,250.5 Z"/></g>
<g><path style="opacity:1" fill="#191919" d="M 332.5,243.5 C 334.56,242.189 336.726,242.189 339,243.5C 339.818,246.227 339.652,248.894 338.5,251.5C 337.77,249.659 337.103,247.825 336.5,246C 336.833,245.667 337.167,245.333 337.5,245C 336.095,243.731 334.429,243.231 332.5,243.5 Z"/></g>
<g><path style="opacity:1" fill="#000000" d="M 384.5,243.5 C 386.177,246.615 385.844,249.282 383.5,251.5C 383.194,248.615 383.527,245.948 384.5,243.5 Z"/></g>
<g><path style="opacity:1" fill="#292929" d="M 393.5,243.5 C 394.995,243.415 395.995,244.081 396.5,245.5C 394.167,246.167 391.833,246.833 389.5,247.5C 391.153,250.439 393.486,251.272 396.5,250C 390.226,253.226 387.393,251.393 388,244.5C 389.678,242.447 391.511,242.113 393.5,243.5 Z"/></g>
<g><path style="opacity:1" fill="#e8e8e8" d="M 393.5,243.5 C 392.796,245.344 391.463,245.844 389.5,245C 390.563,243.812 391.897,243.312 393.5,243.5 Z"/></g>
<g><path style="opacity:1" fill="#252525" d="M 371.5,243.5 C 367.527,244.075 366.527,246.242 368.5,250C 369.448,250.483 370.448,250.649 371.5,250.5C 368.048,252.257 366.048,251.09 365.5,247C 366.048,242.91 368.048,241.743 371.5,243.5 Z"/></g>
<g><path style="opacity:1" fill="#d9d9d9" d="M 371.5,243.5 C 372.833,245.833 372.833,248.167 371.5,250.5C 370.448,250.649 369.448,250.483 368.5,250C 366.527,246.242 367.527,244.075 371.5,243.5 Z"/></g>
<g><path style="opacity:1" fill="#171717" d="M 371.5,243.5 C 373.722,243.559 374.722,244.725 374.5,247C 374.722,249.275 373.722,250.441 371.5,250.5C 372.833,248.167 372.833,245.833 371.5,243.5 Z"/></g>
<g><path style="opacity:1" fill="#5f6775" d="M 68.5,241.5 C 72.9995,239.837 74.4995,241.503 73,246.5C 72.7508,245.376 72.2508,244.376 71.5,243.5C 70.2888,244.274 70.2888,245.107 71.5,246C 70.552,246.483 69.552,246.649 68.5,246.5C 68.1367,244.089 69.1367,242.589 71.5,242C 70.552,241.517 69.552,241.351 68.5,241.5 Z"/></g>
<g><path style="opacity:1" fill="#636a77" d="M 108.5,240.5 C 112.893,240.457 113.226,240.957 109.5,242C 113.546,245.246 112.879,246.58 107.5,246C 108.5,245.667 109.5,245.333 110.5,245C 107.715,244.274 107.048,242.774 108.5,240.5 Z"/></g>
<g><path style="opacity:1" fill="#9ba2b0" d="M 26.5,245.5 C 32.3014,249.866 36.4681,248.533 39,241.5C 38.1941,248.659 34.3608,250.826 27.5,248C 26.7476,247.329 26.4142,246.496 26.5,245.5 Z"/></g>
<g><path style="opacity:1" fill="#838383" d="M 239.5,243.5 C 238.527,245.948 238.194,248.615 238.5,251.5C 237.795,248.772 237.128,245.939 236.5,243C 237.749,242.26 238.749,242.427 239.5,243.5 Z"/></g>
<g><path style="opacity:1" fill="#191919" d="M 243.5,246.5 C 245.765,246.441 246.098,247.274 244.5,249C 244.905,249.945 245.572,250.612 246.5,251C 242.707,251.487 241.707,249.987 243.5,246.5 Z"/></g>
<g><path style="opacity:1" fill="#191919" d="M 301.5,246.5 C 303.765,246.441 304.098,247.274 302.5,249C 302.905,249.945 303.572,250.612 304.5,251C 300.707,251.487 299.707,249.987 301.5,246.5 Z"/></g>
<g><path style="opacity:1" fill="#828282" d="M 319.5,243.5 C 318.527,245.948 318.194,248.615 318.5,251.5C 317.795,248.772 317.128,245.939 316.5,243C 317.749,242.26 318.749,242.427 319.5,243.5 Z"/></g>
<g><path style="opacity:1" fill="#191919" d="M 332.5,246.5 C 334.765,246.441 335.098,247.274 333.5,249C 333.905,249.945 334.572,250.612 335.5,251C 331.707,251.487 330.707,249.987 332.5,246.5 Z"/></g>
<g><path style="opacity:1" fill="#838383" d="M 384.5,243.5 C 383.527,245.948 383.194,248.615 383.5,251.5C 382.795,248.772 382.128,245.939 381.5,243C 382.749,242.26 383.749,242.427 384.5,243.5 Z"/></g>
<g><path style="opacity:1" fill="#777f8d" d="M 629.5,242.5 C 629.5,244.833 629.5,247.167 629.5,249.5C 628.698,248.048 628.198,246.382 628,244.5C 625.338,251.015 623.672,250.682 623,243.5C 624.044,244.623 624.71,245.956 625,247.5C 625.154,244.475 626.654,242.809 629.5,242.5 Z"/></g>
<g><path style="opacity:1" fill="#595959" d="M 258.5,250.5 C 256.965,251.788 255.299,251.788 253.5,250.5C 254.887,250.193 256.554,250.193 258.5,250.5 Z"/></g>
<g><path style="opacity:1" fill="#595959" d="M 327.5,250.5 C 325.965,251.788 324.299,251.788 322.5,250.5C 323.887,250.193 325.554,250.193 327.5,250.5 Z"/></g>
<g><path style="opacity:1" fill="#666d79" d="M 72.5,276.5 C 73.7647,277.514 74.4313,279.014 74.5,281C 74.1667,282.5 73.8333,284 73.5,285.5C 72.5159,282.572 72.1826,279.572 72.5,276.5 Z"/></g>
<g><path style="opacity:1" fill="#616875" d="M 116.5,276.5 C 118.117,277.589 118.95,279.256 119,281.5C 122.476,278.814 122.976,279.147 120.5,282.5C 122.976,285.853 122.476,286.186 119,283.5C 118.692,284.308 118.192,284.975 117.5,285.5C 116.516,282.572 116.183,279.572 116.5,276.5 Z"/></g>
<g><path style="opacity:1" fill="#465062" d="M 93.5,277.5 C 95.4672,277.261 97.3005,277.594 99,278.5C 99.3329,280.934 98.1662,281.934 95.5,281.5C 95.5,282.5 95.5,283.5 95.5,284.5C 96.552,284.351 97.552,284.517 98.5,285C 96.8659,285.494 95.1992,285.66 93.5,285.5C 93.5,282.833 93.5,280.167 93.5,277.5 Z"/></g>
<g><path style="opacity:1" fill="#868e9e" d="M 26.5,286.5 C 25.3592,283.36 25.1925,280.027 26,276.5C 28.1335,278.138 30.6335,278.971 33.5,279C 31.1902,279.497 28.8568,279.663 26.5,279.5C 26.5,281.833 26.5,284.167 26.5,286.5 Z"/></g>
<g><path style="opacity:1" fill="#f4f5f5" d="M 95.5,278.5 C 97.337,278.639 97.6704,279.306 96.5,280.5C 95.7025,280.043 95.3691,279.376 95.5,278.5 Z"/></g>
<g><path style="opacity:1" fill="#575f6e" d="M 76.5,279.5 C 78.12,280.841 79.12,282.674 79.5,285C 78.5509,285.617 77.7175,285.451 77,284.5C 76.5065,282.866 76.3398,281.199 76.5,279.5 Z"/></g>
<g><path style="opacity:1" fill="#555e6c" d="M 80.5,279.5 C 81.6935,279.97 82.3601,280.97 82.5,282.5C 82.1667,283.5 81.8333,284.5 81.5,285.5C 80.5344,283.604 80.2011,281.604 80.5,279.5 Z"/></g>
<g><path style="opacity:1" fill="#3184fd" d="M 276.5,279.5 C 278.164,280.949 278.998,282.949 279,285.5C 282.523,281.553 283.357,281.553 281.5,285.5C 283.965,290.27 283.298,290.603 279.5,286.5C 278.833,287.5 278.167,288.5 277.5,289.5C 276.513,286.232 276.18,282.898 276.5,279.5 Z"/></g>
<g><path style="opacity:1" fill="#5d6574" d="M 50.5,277.5 C 51.4959,277.414 52.3292,277.748 53,278.5C 54.5234,280.83 55.0234,283.164 54.5,285.5C 52.5623,282.921 50.729,282.921 49,285.5C 48.9552,282.78 49.4552,280.114 50.5,277.5 Z"/></g>
<g><path style="opacity:1" fill="#59616f" d="M 84.5,277.5 C 85.9311,278.082 87.2644,278.915 88.5,280C 85.8333,281.667 85.8333,283.333 88.5,285C 87.2161,285.684 86.0495,285.517 85,284.5C 83.9397,282.05 83.773,279.717 84.5,277.5 Z"/></g>
<g><path style="opacity:1" fill="#757e91" d="M 395.5,280.5 C 397.527,280.338 399.527,280.505 401.5,281C 397.068,281.623 396.735,282.623 400.5,284C 399.552,284.483 398.552,284.649 397.5,284.5C 397.5,285.5 397.5,286.5 397.5,287.5C 398.873,287.343 400.207,287.51 401.5,288C 399.527,288.495 397.527,288.662 395.5,288.5C 395.5,285.833 395.5,283.167 395.5,280.5 Z"/></g>
<g><path style="opacity:1" fill="#646a77" d="M 57.5,279.5 C 58.6935,279.97 59.3601,280.97 59.5,282.5C 59.1667,283.5 58.8333,284.5 58.5,285.5C 57.5344,283.604 57.2011,281.604 57.5,279.5 Z"/></g>
<g><path style="opacity:1" fill="#646a77" d="M 108.5,279.5 C 109.693,279.97 110.36,280.97 110.5,282.5C 110.167,283.5 109.833,284.5 109.5,285.5C 108.534,283.604 108.201,281.604 108.5,279.5 Z"/></g>
<g><path style="opacity:1" fill="#848b9c" d="M 388.5,280.5 C 390.288,280.215 391.955,280.548 393.5,281.5C 392.313,281.554 390.98,281.887 389.5,282.5C 391.053,283.439 392.387,284.606 393.5,286C 393.355,286.772 393.022,287.439 392.5,288C 390.741,288.798 389.074,288.631 387.5,287.5C 388.687,287.446 390.02,287.113 391.5,286.5C 387.803,285.715 386.803,283.715 388.5,280.5 Z"/></g>
<g><path style="opacity:1" fill="#4f5867" d="M 60.5,280.5 C 61.1894,279.226 62.0228,279.226 63,280.5C 63.7975,282.259 63.6309,283.926 62.5,285.5C 61.8302,283.709 61.1635,282.042 60.5,280.5 Z"/></g>
<g><path style="opacity:1" fill="#4f5867" d="M 111.5,280.5 C 112.189,279.226 113.023,279.226 114,280.5C 114.798,282.259 114.631,283.926 113.5,285.5C 112.83,283.709 112.163,282.042 111.5,280.5 Z"/></g>
<g><path style="opacity:1" fill="#3184fd" d="M 267.5,282.5 C 268.725,283.152 269.392,284.319 269.5,286C 269.167,287.167 268.833,288.333 268.5,289.5C 267.526,287.257 267.192,284.924 267.5,282.5 Z"/></g>
<g><path style="opacity:1" fill="#818899" d="M 310.5,280.5 C 312.592,280.561 314.092,281.561 315,283.5C 315.249,282.376 315.749,281.376 316.5,280.5C 317.833,283.167 317.833,285.833 316.5,288.5C 315.139,286.972 313.972,285.305 313,283.5C 312.798,285.256 312.298,286.922 311.5,288.5C 310.52,285.914 310.187,283.247 310.5,280.5 Z"/></g>
<g><path style="opacity:1" fill="#7b8395" d="M 327.5,282.5 C 329.056,283.291 330.39,283.624 331.5,283.5C 330.248,285.001 329.248,286.668 328.5,288.5C 327.534,286.604 327.201,284.604 327.5,282.5 Z"/></g>
<g><path style="opacity:1" fill="#7b8395" d="M 347.5,282.5 C 349.056,283.291 350.39,283.624 351.5,283.5C 350.248,285.001 349.248,286.668 348.5,288.5C 347.534,286.604 347.201,284.604 347.5,282.5 Z"/></g>
<g><path style="opacity:1" fill="#9ea3b1" d="M 403.5,280.5 C 408.027,279.526 410.36,281.359 410.5,286C 408.713,288.134 406.38,288.967 403.5,288.5C 403.5,285.833 403.5,283.167 403.5,280.5 Z"/></g>
<g><path style="opacity:1" fill="#4c8cfd" d="M 236.5,283.5 C 237.478,283.811 238.145,284.478 238.5,285.5C 236.922,286.298 235.256,286.798 233.5,287C 235.193,288.347 236.86,288.847 238.5,288.5C 232.976,290.914 230.809,289.248 232,283.5C 233.616,282.199 235.116,282.199 236.5,283.5 Z"/></g>
<g><path style="opacity:1" fill="#4288fd" d="M 245.5,279.5 C 246.777,280.694 247.444,282.36 247.5,284.5C 247.167,286.167 246.833,287.833 246.5,289.5C 245.833,287.5 245.167,285.5 244.5,283.5C 241.919,285.326 241.919,287.159 244.5,289C 241.77,289.942 240.437,288.942 240.5,286C 240.743,282.997 242.41,281.83 245.5,282.5C 245.5,281.5 245.5,280.5 245.5,279.5 Z"/></g>
<g><path style="opacity:1" fill="#4188fd" d="M 249.5,279.5 C 251.388,281.988 252.055,284.988 251.5,288.5C 252.5,288.5 253.5,288.5 254.5,288.5C 254.254,286.22 254.254,284.22 254.5,282.5C 256.446,284.044 256.946,286.044 256,288.5C 253.959,289.423 251.792,289.756 249.5,289.5C 249.5,286.167 249.5,282.833 249.5,279.5 Z"/></g>
<g><path style="opacity:1" fill="#2882fd" d="M 271.5,283.5 C 272.189,282.226 273.023,282.226 274,283.5C 274.808,285.579 274.641,287.579 273.5,289.5C 272.831,287.369 272.165,285.369 271.5,283.5 Z"/></g>
<g><path style="opacity:1" fill="#8c92a2" d="M 341.5,282.5 C 347.974,283.619 347.974,284.785 341.5,286C 342.623,287.044 343.956,287.71 345.5,288C 340.728,288.81 339.395,286.977 341.5,282.5 Z"/></g>
<g><path style="opacity:1" fill="#636a77" d="M 66.5,279.5 C 70.8926,279.457 71.2259,279.957 67.5,281C 71.5456,284.246 70.879,285.58 65.5,285C 66.5,284.667 67.5,284.333 68.5,284C 65.715,283.274 65.0484,281.774 66.5,279.5 Z"/></g>
<g><path style="opacity:1" fill="#5f6775" d="M 101.5,280.5 C 106,278.837 107.5,280.503 106,285.5C 105.751,284.376 105.251,283.376 104.5,282.5C 103.289,283.274 103.289,284.107 104.5,285C 103.552,285.483 102.552,285.649 101.5,285.5C 101.137,283.089 102.137,281.589 104.5,281C 103.552,280.517 102.552,280.351 101.5,280.5 Z"/></g>
<g><path style="opacity:1" fill="#eef1ff" d="M 236.5,283.5 C 236.052,285.465 235.052,285.798 233.5,284.5C 234.325,283.614 235.325,283.281 236.5,283.5 Z"/></g>
<g><path style="opacity:1" fill="#749dfd" d="M 258.5,283.5 C 264.327,280.979 266.66,282.979 265.5,289.5C 263.473,289.662 261.473,289.495 259.5,289C 257.87,285.938 258.87,284.271 262.5,284C 261.207,283.51 259.873,283.343 258.5,283.5 Z"/></g>
<g><path style="opacity:1" fill="#8b92a1" d="M 320.5,282.5 C 325.159,282.015 326.492,283.848 324.5,288C 319.728,288.81 318.395,286.977 320.5,282.5 Z"/></g>
<g><path style="opacity:1" fill="#f4f4f5" d="M 321.5,283.5 C 322.586,283.62 323.253,284.287 323.5,285.5C 323.167,286.167 322.833,286.833 322.5,287.5C 321.571,286.311 321.238,284.978 321.5,283.5 Z"/></g>
<g><path style="opacity:1" fill="#848b9c" d="M 336.5,279.5 C 338.388,281.988 339.055,284.988 338.5,288.5C 333.877,289.592 332.044,287.925 333,283.5C 334.011,282.663 335.178,282.33 336.5,282.5C 336.5,281.5 336.5,280.5 336.5,279.5 Z"/></g>
<g><path style="opacity:1" fill="#e9e9ec" d="M 334.5,283.5 C 335.586,283.62 336.253,284.287 336.5,285.5C 335.696,287.957 334.696,287.957 333.5,285.5C 333.863,284.817 334.196,284.15 334.5,283.5 Z"/></g>
<g><path style="opacity:1" fill="#6094fd" d="M 210.5,280.5 C 212.199,280.34 213.866,280.506 215.5,281C 213.956,281.29 212.623,281.956 211.5,283C 213.725,283.876 215.725,285.043 217.5,286.5C 215.497,289.505 212.83,290.172 209.5,288.5C 211.003,287.948 212.669,287.948 214.5,288.5C 214.5,287.5 214.5,286.5 214.5,285.5C 210.065,286.078 208.732,284.411 210.5,280.5 Z"/></g>
<g><path style="opacity:1" fill="#8991a1" d="M 26.5,286.5 C 30.1817,286.665 33.8484,286.499 37.5,286C 38.2266,284.601 38.7266,283.101 39,281.5C 39.7429,283.441 39.5762,285.274 38.5,287C 34.3112,287.812 30.3112,287.645 26.5,286.5 Z"/></g>
<g><path style="opacity:1" fill="#4e8cfd" d="M 218.5,282.5 C 219.859,283.007 220.859,284.007 221.5,285.5C 222.386,284.675 222.719,283.675 222.5,282.5C 223.5,282.5 224.5,282.5 225.5,282.5C 225.678,286.102 226.678,286.102 228.5,282.5C 229.121,284.998 228.455,287.332 226.5,289.5C 225.416,288.335 224.583,287.002 224,285.5C 222.812,286.563 222.312,287.897 222.5,289.5C 221.5,289.5 220.5,289.5 219.5,289.5C 219.326,287.139 218.993,284.806 218.5,282.5 Z"/></g>
<g><path style="opacity:1" fill="#858c9c" d="M 352.5,283.5 C 357,281.837 358.5,283.503 357,288.5C 356.751,287.376 356.251,286.376 355.5,285.5C 354.289,286.274 354.289,287.107 355.5,288C 354.552,288.483 353.552,288.649 352.5,288.5C 352.137,286.089 353.137,284.589 355.5,284C 354.552,283.517 353.552,283.351 352.5,283.5 Z"/></g>
<g><path style="opacity:1" fill="#4393fe" d="M 209.5,296.5 C 231.177,296.167 252.844,296.5 274.5,297.5C 263.667,297.833 252.833,298.167 242,298.5C 230.812,298.499 219.979,297.832 209.5,296.5 Z"/></g>
<g><path style="opacity:1" fill="#f4f9fe" d="M 629.5,321.5 C 629.5,341.167 629.5,360.833 629.5,380.5C 490.5,380.667 351.5,380.5 212.5,380C 211.333,379.5 210.5,378.667 210,377.5C 209.333,359.5 209.333,341.5 210,323.5C 210.5,323 211,322.5 211.5,322C 350.833,321.5 490.166,321.333 629.5,321.5 Z"/></g>
<g><path style="opacity:1" fill="#2674ef" d="M 232.5,334.5 C 248.399,333.639 253.565,340.639 248,355.5C 239.536,362.867 232.203,361.867 226,352.5C 223.368,344.765 225.535,338.765 232.5,334.5 Z"/></g>
<g><path style="opacity:1" fill="#455a91" d="M 269.5,346.5 C 269.67,345.178 269.337,344.011 268.5,343C 264.911,343.29 263.411,341.79 264,338.5C 266.915,335.866 269.748,335.866 272.5,338.5C 272.333,338.833 272.167,339.167 272,339.5C 270.416,338.139 268.582,337.472 266.5,337.5C 266.33,338.822 266.663,339.989 267.5,341C 271.089,340.71 272.589,342.21 272,345.5C 271.329,346.252 270.496,346.586 269.5,346.5 Z"/></g>
<g><path style="opacity:1" fill="#2d4a89" d="M 274.5,339.5 C 276.284,340.574 277.451,342.24 278,344.5C 279.009,342.975 279.509,341.308 279.5,339.5C 280.5,339.5 281.5,339.5 282.5,339.5C 282.862,345.253 283.862,345.586 285.5,340.5C 286.167,339.167 286.833,339.167 287.5,340.5C 286.423,342.729 285.756,345.063 285.5,347.5C 284.5,347.5 283.5,347.5 282.5,347.5C 281.428,340.908 280.428,340.908 279.5,347.5C 278.325,347.719 277.325,347.386 276.5,346.5C 275.423,344.271 274.756,341.937 274.5,339.5 Z"/></g>
<g><path style="opacity:1" fill="#3f558f" d="M 340.5,335.5 C 341.5,335.5 342.5,335.5 343.5,335.5C 343.337,337.857 343.503,340.19 344,342.5C 347.841,338.346 348.675,338.513 346.5,343C 349.055,347.946 348.388,348.446 344.5,344.5C 343.614,345.325 343.281,346.325 343.5,347.5C 342.5,347.5 341.5,347.5 340.5,347.5C 340.5,343.5 340.5,339.5 340.5,335.5 Z"/></g>
<g><path style="opacity:1" fill="#38508d" d="M 295.5,340.5 C 297.048,340.821 297.715,341.821 297.5,343.5C 295.396,343.201 293.396,343.534 291.5,344.5C 292.966,346.657 294.8,346.99 297,345.5C 297.167,345.833 297.333,346.167 297.5,346.5C 292.055,348.865 289.555,347.198 290,341.5C 291.678,339.447 293.511,339.113 295.5,340.5 Z"/></g>
<g><path style="opacity:1" fill="#2a4888" d="M 305.5,335.5 C 306.794,337.048 307.461,339.048 307.5,341.5C 307.167,343.5 306.833,345.5 306.5,347.5C 305.526,345.257 305.192,342.924 305.5,340.5C 301.081,341.323 300.414,343.49 303.5,347C 301.174,347.185 299.84,346.018 299.5,343.5C 300.136,340.206 302.136,338.873 305.5,339.5C 305.5,338.167 305.5,336.833 305.5,335.5 Z"/></g>
<g><path style="opacity:1" fill="#465a91" d="M 320.5,340.5 C 326.186,338.846 328.52,341.18 327.5,347.5C 325.143,347.663 322.81,347.497 320.5,347C 319.269,345.817 319.269,344.651 320.5,343.5C 321.386,344.325 321.719,345.325 321.5,346.5C 322.5,346.5 323.5,346.5 324.5,346.5C 324.64,344.876 323.973,343.71 322.5,343C 323.308,342.692 323.975,342.192 324.5,341.5C 323.311,340.571 321.978,340.238 320.5,340.5 Z"/></g>
<g><path style="opacity:1" fill="#254687" d="M 333.5,340.5 C 334.542,339.209 335.708,339.209 337,340.5C 337.814,342.902 337.647,345.235 336.5,347.5C 336.062,344.705 335.062,342.372 333.5,340.5 Z"/></g>
<g><path style="opacity:1" fill="#dde2ed" d="M 295.5,340.5 C 294.796,342.344 293.463,342.844 291.5,342C 292.563,340.812 293.897,340.312 295.5,340.5 Z"/></g>
<g><path style="opacity:1" fill="#526396" d="M 309.5,335.5 C 310.5,335.5 311.5,335.5 312.5,335.5C 312.177,339.226 312.511,342.893 313.5,346.5C 316.093,344.356 316.093,342.189 313.5,340C 314.784,339.316 315.951,339.483 317,340.5C 318.607,346.918 316.107,349.251 309.5,347.5C 309.5,343.5 309.5,339.5 309.5,335.5 Z"/></g>
<g><path style="opacity:1" fill="#5a6999" d="M 329.5,339.5 C 330.5,339.5 331.5,339.5 332.5,339.5C 332.5,342.167 332.5,344.833 332.5,347.5C 331.5,347.5 330.5,347.5 329.5,347.5C 329.5,344.833 329.5,342.167 329.5,339.5 Z"/></g>
<g><path style="opacity:1" fill="#d3ddfa" d="M 238.5,342.5 C 243.507,341.672 245.841,343.838 245.5,349C 245.355,349.772 245.022,350.439 244.5,351C 242.527,351.495 240.527,351.662 238.5,351.5C 238.5,348.5 238.5,345.5 238.5,342.5 Z"/></g>
<g><path style="opacity:1" fill="#2874ef" d="M 240.5,343.5 C 242.465,343.948 242.798,344.948 241.5,346.5C 240.614,345.675 240.281,344.675 240.5,343.5 Z"/></g>
<g><path style="opacity:1" fill="#d0dafa" d="M 231.5,342.5 C 233.288,342.215 234.955,342.548 236.5,343.5C 229.743,344.195 229.91,345.528 237,347.5C 237.684,348.784 237.517,349.951 236.5,351C 234.421,351.808 232.421,351.641 230.5,350.5C 232.14,350.847 233.807,350.347 235.5,349C 234.109,347.98 232.609,347.147 231,346.5C 230.421,345.072 230.588,343.738 231.5,342.5 Z"/></g>
<g><path style="opacity:1" fill="#5b6b9a" d="M 269.5,346.5 C 267.636,347.793 265.636,347.793 263.5,346.5C 265.326,346.08 267.326,346.08 269.5,346.5 Z"/></g>
<g><path style="opacity:1" fill="#3877ef" d="M 240.5,347.5 C 241.5,347.5 242.5,347.5 243.5,347.5C 243.5,348.5 243.5,349.5 243.5,350.5C 242.5,350.5 241.5,350.5 240.5,350.5C 240.5,349.5 240.5,348.5 240.5,347.5 Z"/></g>
<g><path style="opacity:1" fill="#3284fd" d="M 320.5,355.5 C 322.164,356.949 322.998,358.949 323,361.5C 325.478,357.345 326.312,357.512 325.5,362C 327.507,366.337 326.673,366.504 323,362.5C 322.751,363.624 322.251,364.624 321.5,365.5C 320.513,362.232 320.18,358.898 320.5,355.5 Z"/></g>
<g><path style="opacity:1" fill="#4c8cf2" d="M 294.5,358.5 C 294.631,359.239 294.464,359.906 294,360.5C 292.624,357.875 291.458,357.875 290.5,360.5C 288.983,357.505 289.983,356.339 293.5,357C 294.056,357.383 294.389,357.883 294.5,358.5 Z"/></g>
<g><path style="opacity:1" fill="#5d96f3" d="M 272.5,356.5 C 276.919,357.323 277.586,359.49 274.5,363C 277.23,364.232 277.063,365.065 274,365.5C 273.167,365.167 272.333,364.833 271.5,364.5C 272.711,363.126 273.711,361.626 274.5,360C 274.167,359.5 273.833,359 273.5,358.5C 269.839,359.823 269.506,359.157 272.5,356.5 Z"/></g>
<g><path style="opacity:1" fill="#357df0" d="M 308.5,365.5 C 309.01,362.612 308.344,360.279 306.5,358.5C 306.811,357.522 307.478,356.855 308.5,356.5C 309.803,359.645 309.803,362.645 308.5,365.5 Z"/></g>
<g><path style="opacity:1" fill="#3284fd" d="M 328.5,358.5 C 329.94,359.363 331.274,359.363 332.5,358.5C 332.833,358.833 333.167,359.167 333.5,359.5C 332.675,360.386 331.675,360.719 330.5,360.5C 330.785,362.288 330.452,363.955 329.5,365.5C 328.526,363.257 328.192,360.924 328.5,358.5 Z"/></g>
<g><path style="opacity:1" fill="#98c0f8" d="M 306.5,358.5 C 308.344,360.279 309.01,362.612 308.5,365.5C 307.992,363.158 306.992,360.991 305.5,359C 305.728,358.601 306.062,358.435 306.5,358.5 Z"/></g>
<g><path style="opacity:1" fill="#6198f4" d="M 313.5,356.5 C 318.018,357.221 318.685,359.388 315.5,363C 318.076,364.383 317.742,365.217 314.5,365.5C 313.5,365.167 312.5,364.833 311.5,364.5C 316.693,361.263 316.693,359.263 311.5,358.5C 312.243,357.818 312.909,357.151 313.5,356.5 Z"/></g>
<g><path style="opacity:1" fill="#659df4" d="M 281.5,356.5 C 283.604,356.201 285.604,356.534 287.5,357.5C 286.271,358.281 284.938,358.781 283.5,359C 287.04,359.329 288.206,361.162 287,364.5C 285.035,365.885 283.202,365.718 281.5,364C 282.549,363.508 283.549,363.674 284.5,364.5C 285.386,363.675 285.719,362.675 285.5,361.5C 284.167,361.5 282.833,361.5 281.5,361.5C 281.5,359.833 281.5,358.167 281.5,356.5 Z"/></g>
<g><path style="opacity:1" fill="#aec7f9" d="M 294.5,358.5 C 295.833,360.5 295.833,362.5 294.5,364.5C 294.167,360.5 293.833,360.5 293.5,364.5C 292.5,364.5 291.5,364.5 290.5,364.5C 290.5,363.5 290.5,362.5 290.5,361.5C 290.5,361.167 290.5,360.833 290.5,360.5C 291.458,357.875 292.624,357.875 294,360.5C 294.464,359.906 294.631,359.239 294.5,358.5 Z"/></g>
<g><path style="opacity:1" fill="#4e8df2" d="M 297.5,356.5 C 299.144,356.286 300.644,356.62 302,357.5C 301.833,360 301.667,362.5 301.5,365C 299.888,365.72 298.388,365.554 297,364.5C 296.934,361.875 297.101,359.208 297.5,356.5 Z"/></g>
<g><path style="opacity:1" fill="#dae9fd" d="M 298.5,361.5 C 300.465,361.948 300.798,362.948 299.5,364.5C 298.614,363.675 298.281,362.675 298.5,361.5 Z"/></g>
<g><path style="opacity:1" fill="#4c8af2" d="M 290.5,361.5 C 290.5,362.5 290.5,363.5 290.5,364.5C 291.5,364.5 292.5,364.5 293.5,364.5C 293.833,360.5 294.167,360.5 294.5,364.5C 293.054,365.613 291.387,365.78 289.5,365C 288.2,363.421 288.534,362.255 290.5,361.5 Z"/></g>
<g><path style="opacity:1" fill="#f5f9fe" d="M 629.5,393.5 C 629.5,486.5 629.5,579.5 629.5,672.5C 490.167,672.5 350.833,672.5 211.5,672.5C 212.149,651.101 211.482,629.935 209.5,609C 210.816,601.401 211.483,593.568 211.5,585.5C 211.483,577.432 210.816,569.599 209.5,562C 210.828,538.882 211.495,515.549 211.5,492C 211.375,464.481 210.708,436.981 209.5,409.5C 209.667,405.167 209.833,400.833 210,396.5C 210.5,396 211,395.5 211.5,395C 350.753,393.503 490.086,393.003 629.5,393.5 Z"/></g>
<g><path style="opacity:1" fill="#f1f7fd" d="M 31.5,640.5 C 43.6836,640.514 48.8502,646.514 47,658.5C 42.0004,666.878 35.1671,668.712 26.5,664C 18.7708,654.216 20.4375,646.383 31.5,640.5 Z"/></g>
<g><path style="opacity:1" fill="#b1b6c1" d="M 161.5,644.5 C 162.978,644.238 164.311,644.571 165.5,645.5C 164.675,646.386 163.675,646.719 162.5,646.5C 162.5,649.167 162.5,651.833 162.5,654.5C 163.675,654.281 164.675,654.614 165.5,655.5C 163.741,656.754 162.241,656.421 161,654.5C 160.341,651.112 160.508,647.779 161.5,644.5 Z"/></g>
<g><path style="opacity:1" fill="#989fad" d="M 168.5,647.5 C 172.473,649.46 172.473,651.46 168.5,653.5C 167.304,653.154 167.304,652.654 168.5,652C 167.062,651.781 165.729,651.281 164.5,650.5C 166.332,649.943 167.665,648.943 168.5,647.5 Z"/></g>
</svg>
